<?xml version="1.0" encoding="UTF-8"?>
<svg width="174.6417px" height="70.8653px" viewBox="0 0 174.6417 70.8653" version="1.1" xmlns="http://www.w3.org/2000/svg" xmlns:xlink="http://www.w3.org/1999/xlink">
    <title>Group</title>
    <g id="Page-1" stroke="none" stroke-width="1" fill="none" fill-rule="evenodd">
        <g id="Group" transform="translate(-0, 0)" fill="#FFFFFE">
            <path d="M0.0004,58.1116 L51.0234,58.1116 L51.0234,24.0936 L0.0004,24.0936 L0.0004,58.1116 Z M0.5004,57.6116 L50.5234,57.6116 L50.5234,24.5936 L0.5004,24.5936 L0.5004,57.6116 Z" id="Fill-44"></path>
            <polygon id="Fill-45" points="24.4254 31.5068 25.5034 30.7198 26.5774 31.5068 26.1694 30.2358 27.2614 29.4488 25.9134 29.4488 25.5034 28.1628 25.0874 29.4488 23.7414 29.4488 24.8334 30.2358"></polygon>
            <polygon id="Fill-46" points="18.8521 33.0029 19.9281 32.2179 21.0051 33.0029 20.5951 31.7329 21.6891 30.9469 20.3411 30.9469 19.9281 29.6589 19.5161 30.9469 18.1671 30.9469 19.2621 31.7329"></polygon>
            <polygon id="Fill-47" points="15.8511 33.7451 15.4391 35.0341 14.0931 35.0321 15.1851 35.8191 14.7771 37.0901 15.8511 36.3021 16.9271 37.0901 16.5171 35.8191 17.6121 35.0321 16.2631 35.0321"></polygon>
            <polygon id="Fill-48" points="14.357 41.8691 15.433 42.6521 15.023 41.3831 16.116 40.5971 14.769 40.5971 14.357 39.3091 13.946 40.6011 12.596 40.5971 13.691 41.3831 13.282 42.6521"></polygon>
            <polygon id="Fill-49" points="16.2633 46.1787 15.8513 44.8927 15.4393 46.1797 14.0933 46.1787 15.1853 46.9637 14.7773 48.2367 15.8513 47.4487 16.9273 48.2367 16.5183 46.9637 17.6123 46.1787"></polygon>
            <polygon id="Fill-50" points="20.3472 50.2636 19.9372 48.9796 19.5272 50.2666 18.1782 50.2636 19.2732 51.0506 18.8612 52.3216 19.9372 51.5346 21.0152 52.3216 20.6052 51.0506 21.6982 50.2636"></polygon>
            <polygon id="Fill-51" points="25.9146 51.7451 25.5036 50.4561 25.0936 51.7451 23.7456 51.7451 24.8366 52.5291 24.4266 53.7991 25.5036 53.0161 26.5776 53.7991 26.1696 52.5291 27.2636 51.7451"></polygon>
            <polygon id="Fill-52" points="31.48 50.2636 31.066 48.9796 30.652 50.2666 29.307 50.2636 30.402 51.0506 29.992 52.3216 31.066 51.5346 32.144 52.3216 31.734 51.0506 32.828 50.2636"></polygon>
            <polygon id="Fill-53" points="35.5621 46.1787 35.1531 44.8927 34.7431 46.1797 33.3941 46.1787 34.4891 46.9637 34.0751 48.2367 35.1531 47.4487 36.2281 48.2367 35.8191 46.9637 36.9131 46.1787"></polygon>
            <polygon id="Fill-54" points="38.3912 40.582 37.0422 40.582 36.6282 39.294 36.2182 40.583 34.8692 40.582 35.9652 41.367 35.5552 42.638 36.6282 41.852 37.7062 42.638 37.2982 41.367"></polygon>
            <polygon id="Fill-55" points="34.0758 37.0712 35.1518 36.2862 36.2288 37.0712 35.8178 35.8002 36.9118 35.0152 35.5628 35.0152 35.1518 33.7282 34.7418 35.0182 33.3938 35.0152 34.4888 35.8002"></polygon>
            <polygon id="Fill-56" points="31.0845 29.6591 30.6715 30.9491 29.3235 30.9461 30.4155 31.7331 30.0055 33.0041 31.0845 32.2191 32.1585 33.0041 31.7495 31.7331 32.8455 30.9461 31.4965 30.9461"></polygon>
            <path d="M47.7935,-5.68434189e-14 L33.4855,-5.68434189e-14 L26.0925,3.919 L24.0155,-5.68434189e-14 L16.0805,-5.68434189e-14 L19.8995,7.203 L13.7045,10.486 L8.1445,-5.68434189e-14 L0.2125,-5.68434189e-14 L7.5115,13.77 L10.7945,19.965 L35.8195,6.697 L27.3485,22.676 L47.1875,22.676 L47.8905,21.351 L38.6015,16.424 L40.8145,12.247 C41.3795,13.169 42.0585,14.047 42.8585,14.85 C45.1495,17.141 48.0375,18.469 51.0225,18.842 L51.0225,11.716 C49.8475,11.414 48.7325,10.812 47.8145,9.892 C45.0835,7.16 45.0775,2.737 47.7935,-5.68434189e-14 M46.7105,0.5 C44.5625,3.435 44.8135,7.597 47.4605,10.245 C48.3125,11.098 49.3655,11.732 50.5225,12.094 L50.5225,18.264 C47.7385,17.8 45.2205,16.504 43.2125,14.496 C42.4675,13.749 41.8045,12.904 41.2395,11.985 L40.7825,11.239 L40.3725,12.013 L38.1595,16.189 L37.9255,16.631 L38.3665,16.865 L47.2145,21.558 L46.8865,22.176 L28.1795,22.176 L36.2615,6.932 L37.0245,5.492 L35.5855,6.256 L11.0015,19.289 L7.9525,13.535 L1.0435,0.5 L7.8435,0.5 L13.2635,10.721 L13.4975,11.162 L13.9395,10.928 L20.1345,7.645 L20.5755,7.41 L20.3415,6.969 L16.9115,0.5 L23.7145,0.5 L25.6495,4.153 L25.8845,4.595 L26.3255,4.36 L33.6105,0.5 L46.7105,0.5" id="Fill-57"></path>
            <path d="M43.647,59.5273 L20.897,59.5273 C21.002,60.2343 21.005,60.9683 20.882,61.7123 C20.317,65.1433 17.346,67.5813 13.974,67.5813 C13.595,67.5813 13.21,67.5493 12.824,67.4863 C9.039,66.8603 6.467,63.3083 7.035,59.5273 L1.13686838e-13,59.5273 L1.13686838e-13,61.8353 C0.314,65.3343 1.941,68.5403 4.451,70.8653 L23.481,70.8653 C25.696,68.8223 27.272,66.0553 27.8,62.8533 C27.986,61.7363 28.024,60.6303 27.946,59.5483 L32.181,61.6543 L27.601,70.8653 L35.429,70.8653 L38.459,64.7763 L44.735,67.9003 L43.26,70.8653 L51.023,70.8653 L51.023,63.1963 L43.647,59.5273 Z M27.472,60.0273 C27.51,60.9603 27.455,61.8813 27.307,62.7723 C26.824,65.7043 25.433,68.3253 23.284,70.3653 L4.648,70.3653 C2.268,68.0963 0.797,65.0683 0.5,61.8123 L0.5,60.0273 L6.476,60.0273 C6.203,63.8453 8.908,67.3453 12.742,67.9793 C13.15,68.0473 13.565,68.0813 13.974,68.0813 C17.664,68.0813 20.775,65.4363 21.376,61.7943 C21.472,61.2123 21.499,60.6203 21.455,60.0273 L27.472,60.0273 L27.472,60.0273 Z M43.53,60.0273 L50.523,63.5063 L50.523,70.3653 L44.068,70.3653 L45.183,68.1233 L45.407,67.6753 L44.958,67.4533 L38.681,64.3293 L38.234,64.1053 L38.011,64.5533 L35.12,70.3653 L28.408,70.3653 L32.628,61.8773 L32.851,61.4283 L32.405,61.2063 L30.033,60.0273 L43.53,60.0273 L43.53,60.0273 Z" id="Fill-58"></path>
            <path d="M63.8199,54.2197 C63.7009,53.8967 63.5269,53.6237 63.2999,53.4047 C63.0729,53.1847 62.7909,53.0187 62.4569,52.9067 C62.1229,52.7937 61.7179,52.7387 61.2389,52.7387 L59.8609,52.7387 C59.7689,52.7387 59.6929,52.7647 59.6309,52.8197 C59.5679,52.8737 59.5369,52.9617 59.5369,53.0827 L59.5369,57.7647 C59.5369,57.8857 59.5679,57.9737 59.6309,58.0287 C59.6929,58.0827 59.7689,58.1097 59.8609,58.1097 L61.1439,58.1097 C61.6189,58.1097 62.0299,58.0577 62.3749,57.9527 C62.7179,57.8507 63.0109,57.6877 63.2519,57.4657 C63.4919,57.2437 63.6769,56.9597 63.8059,56.6097 C63.9349,56.2587 63.9979,55.8367 63.9979,55.3447 C63.9979,54.9187 63.9389,54.5437 63.8199,54.2197 L63.8199,54.2197 Z M62.7689,56.1967 C62.7009,56.4287 62.5989,56.6217 62.4609,56.7797 C62.3239,56.9357 62.1549,57.0517 61.9489,57.1297 C61.7439,57.2077 61.4919,57.2457 61.1929,57.2457 L60.6249,57.2457 L60.6249,53.5927 L61.1769,53.5927 C61.5109,53.5927 61.7819,53.6377 61.9889,53.7287 C62.1959,53.8187 62.3639,53.9437 62.4939,54.1047 C62.6249,54.2647 62.7219,54.4537 62.7819,54.6727 C62.8409,54.8917 62.8709,55.1277 62.8709,55.3817 C62.8709,55.6927 62.8359,55.9637 62.7689,56.1967 L62.7689,56.1967 Z M69.3429,57.4807 C69.3359,57.4267 69.3259,57.3837 69.3119,57.3487 C69.2989,57.3167 69.2819,57.2917 69.2609,57.2777 C69.2399,57.2627 69.2159,57.2547 69.1909,57.2547 L67.2579,57.2547 L67.2579,55.7397 L68.8809,55.7397 C68.9069,55.7397 68.9289,55.7327 68.9489,55.7177 C68.9699,55.7037 68.9889,55.6827 69.0019,55.6507 C69.0149,55.6177 69.0249,55.5757 69.0329,55.5237 C69.0389,55.4717 69.0429,55.4047 69.0429,55.3237 C69.0429,55.2467 69.0389,55.1807 69.0329,55.1277 C69.0249,55.0737 69.0149,55.0307 69.0019,54.9987 C68.9889,54.9657 68.9699,54.9437 68.9489,54.9287 C68.9289,54.9117 68.9069,54.9057 68.8809,54.9057 L67.2579,54.9057 L67.2579,53.5927 L69.1749,53.5927 C69.2009,53.5927 69.2219,53.5867 69.2419,53.5707 C69.2609,53.5557 69.2769,53.5317 69.2909,53.4987 C69.3059,53.4657 69.3159,53.4207 69.3229,53.3667 C69.3299,53.3137 69.3339,53.2467 69.3339,53.1707 C69.3339,53.0867 69.3299,53.0187 69.3229,52.9657 C69.3159,52.9107 69.3059,52.8657 69.2909,52.8327 C69.2769,52.7977 69.2609,52.7737 69.2419,52.7587 C69.2219,52.7447 69.2009,52.7387 69.1749,52.7387 L66.4939,52.7387 C66.4019,52.7387 66.3259,52.7647 66.2629,52.8197 C66.2009,52.8737 66.1719,52.9617 66.1719,53.0827 L66.1719,57.7647 C66.1719,57.8857 66.2009,57.9737 66.2629,58.0287 C66.3259,58.0827 66.4019,58.1097 66.4939,58.1097 L69.1909,58.1097 C69.2159,58.1097 69.2399,58.1007 69.2609,58.0867 C69.2819,58.0717 69.2989,58.0477 69.3119,58.0127 C69.3259,57.9807 69.3359,57.9377 69.3429,57.8837 C69.3509,57.8287 69.3529,57.7627 69.3529,57.6807 C69.3529,57.6007 69.3509,57.5337 69.3429,57.4807 L69.3429,57.4807 Z M75.8669,53.1537 C75.8999,53.0577 75.9219,52.9797 75.9309,52.9207 C75.9409,52.8637 75.9329,52.8187 75.9069,52.7857 C75.8809,52.7547 75.8319,52.7347 75.7609,52.7257 C75.6909,52.7177 75.5909,52.7137 75.4649,52.7137 C75.3339,52.7137 75.2319,52.7157 75.1569,52.7217 C75.0819,52.7277 75.0249,52.7387 74.9839,52.7547 C74.9459,52.7727 74.9159,52.7937 74.8999,52.8237 C74.8829,52.8527 74.8689,52.8917 74.8589,52.9387 L73.5759,57.0597 L73.5729,57.0597 L72.2649,52.9167 C72.2499,52.8757 72.2359,52.8407 72.2199,52.8137 C72.2049,52.7847 72.1789,52.7647 72.1399,52.7507 C72.1009,52.7377 72.0469,52.7277 71.9739,52.7217 C71.9019,52.7157 71.8019,52.7137 71.6749,52.7137 C71.5249,52.7137 71.4099,52.7177 71.3259,52.7237 C71.2439,52.7317 71.1849,52.7487 71.1499,52.7787 C71.1159,52.8077 71.1009,52.8507 71.1089,52.9077 C71.1159,52.9677 71.1359,53.0457 71.1679,53.1457 L72.7669,57.9067 C72.7769,57.9427 72.7889,57.9717 72.8019,57.9947 C72.8139,58.0187 72.8319,58.0377 72.8549,58.0557 C72.8789,58.0727 72.9079,58.0847 72.9429,58.0967 C72.9779,58.1087 73.0229,58.1157 73.0779,58.1207 C73.1329,58.1277 73.1989,58.1297 73.2799,58.1317 C73.3569,58.1337 73.4529,58.1337 73.5639,58.1337 C73.7009,58.1337 73.8139,58.1317 73.8999,58.1277 C73.9859,58.1237 74.0519,58.1147 74.1029,58.0987 C74.1519,58.0827 74.1889,58.0617 74.2109,58.0327 C74.2319,58.0027 74.2499,57.9657 74.2649,57.9187 L75.8669,53.1537 Z M81.0659,57.4807 C81.0579,57.4267 81.0489,57.3837 81.0349,57.3487 C81.0209,57.3167 81.0039,57.2917 80.9819,57.2777 C80.9629,57.2627 80.9389,57.2547 80.9139,57.2547 L78.9799,57.2547 L78.9799,55.7397 L80.6029,55.7397 C80.6269,55.7397 80.6499,55.7327 80.6719,55.7177 C80.6929,55.7037 80.7089,55.6827 80.7239,55.6507 C80.7389,55.6177 80.7479,55.5757 80.7559,55.5237 C80.7609,55.4717 80.7649,55.4047 80.7649,55.3237 C80.7649,55.2467 80.7609,55.1807 80.7559,55.1277 C80.7479,55.0737 80.7389,55.0307 80.7239,54.9987 C80.7089,54.9657 80.6929,54.9437 80.6719,54.9287 C80.6499,54.9117 80.6269,54.9057 80.6029,54.9057 L78.9799,54.9057 L78.9799,53.5927 L80.8979,53.5927 C80.9239,53.5927 80.9459,53.5867 80.9649,53.5707 C80.9839,53.5557 80.9999,53.5317 81.0129,53.4987 C81.0269,53.4657 81.0389,53.4207 81.0469,53.3667 C81.0519,53.3137 81.0559,53.2467 81.0559,53.1707 C81.0559,53.0867 81.0519,53.0187 81.0469,52.9657 C81.0389,52.9107 81.0269,52.8657 81.0129,52.8327 C80.9999,52.7977 80.9839,52.7737 80.9649,52.7587 C80.9459,52.7447 80.9239,52.7387 80.8979,52.7387 L78.2159,52.7387 C78.1249,52.7387 78.0489,52.7647 77.9859,52.8197 C77.9239,52.8737 77.8919,52.9617 77.8919,53.0827 L77.8919,57.7647 C77.8919,57.8857 77.9239,57.9737 77.9859,58.0287 C78.0489,58.0827 78.1249,58.1097 78.2159,58.1097 L80.9139,58.1097 C80.9389,58.1097 80.9629,58.1007 80.9819,58.0867 C81.0039,58.0717 81.0209,58.0477 81.0349,58.0127 C81.0489,57.9807 81.0579,57.9377 81.0659,57.8837 C81.0729,57.8287 81.0759,57.7627 81.0759,57.6807 C81.0759,57.6007 81.0729,57.5337 81.0659,57.4807 L81.0659,57.4807 Z M86.2559,57.4437 C86.2479,57.3857 86.2389,57.3407 86.2239,57.3057 C86.2089,57.2717 86.1929,57.2457 86.1719,57.2317 C86.1499,57.2157 86.1269,57.2077 86.0989,57.2077 L84.4099,57.2077 L84.4099,52.8877 C84.4099,52.8607 84.3999,52.8347 84.3829,52.8137 C84.3659,52.7917 84.3359,52.7737 84.2929,52.7587 C84.2519,52.7447 84.1979,52.7347 84.1269,52.7257 C84.0579,52.7177 83.9699,52.7137 83.8609,52.7137 C83.7579,52.7137 83.6679,52.7177 83.5989,52.7257 C83.5269,52.7347 83.4719,52.7447 83.4309,52.7587 C83.3879,52.7737 83.3589,52.7917 83.3409,52.8137 C83.3239,52.8347 83.3139,52.8607 83.3139,52.8877 L83.3139,57.7647 C83.3139,57.8857 83.3449,57.9737 83.4079,58.0287 C83.4699,58.0827 83.5469,58.1097 83.6379,58.1097 L86.0989,58.1097 C86.1269,58.1097 86.1499,58.1007 86.1719,58.0847 C86.1929,58.0677 86.2089,58.0397 86.2239,58.0027 C86.2389,57.9657 86.2479,57.9187 86.2559,57.8627 C86.2609,57.8057 86.2649,57.7357 86.2649,57.6527 C86.2649,57.5697 86.2609,57.5007 86.2559,57.4437 L86.2559,57.4437 Z M92.7049,54.1527 C92.5989,53.8107 92.4409,53.5277 92.2319,53.3037 C92.0229,53.0787 91.7629,52.9127 91.4509,52.8057 C91.1399,52.6977 90.7819,52.6437 90.3749,52.6437 C89.9489,52.6437 89.5739,52.7077 89.2519,52.8387 C88.9289,52.9677 88.6599,53.1557 88.4409,53.3987 C88.2219,53.6417 88.0579,53.9377 87.9479,54.2837 C87.8359,54.6317 87.7819,55.0227 87.7819,55.4577 C87.7819,55.9307 87.8319,56.3407 87.9369,56.6857 C88.0409,57.0317 88.1959,57.3167 88.4049,57.5397 C88.6109,57.7647 88.8709,57.9307 89.1809,58.0397 C89.4919,58.1507 89.8569,58.2037 90.2749,58.2037 C90.6989,58.2037 91.0729,58.1397 91.3939,58.0107 C91.7159,57.8837 91.9859,57.6967 92.2049,57.4507 C92.4239,57.2057 92.5899,56.9077 92.6989,56.5577 C92.8099,56.2057 92.8659,55.8077 92.8659,55.3617 C92.8659,54.8977 92.8119,54.4927 92.7049,54.1527 L92.7049,54.1527 Z M91.6499,56.1487 C91.6049,56.3757 91.5269,56.5757 91.4159,56.7487 C91.3059,56.9187 91.1599,57.0557 90.9799,57.1547 C90.7999,57.2547 90.5759,57.3037 90.3079,57.3037 C90.0389,57.3037 89.8179,57.2607 89.6399,57.1727 C89.4629,57.0867 89.3229,56.9597 89.2159,56.7937 C89.1109,56.6277 89.0369,56.4267 88.9919,56.1947 C88.9489,55.9597 88.9269,55.6967 88.9269,55.4037 C88.9269,55.1517 88.9489,54.9117 88.9939,54.6877 C89.0409,54.4617 89.1189,54.2647 89.2299,54.0947 C89.3399,53.9267 89.4859,53.7917 89.6639,53.6917 C89.8449,53.5907 90.0679,53.5397 90.3379,53.5397 C90.6029,53.5397 90.8239,53.5847 91.0019,53.6747 C91.1789,53.7647 91.3199,53.8917 91.4269,54.0557 C91.5329,54.2217 91.6089,54.4187 91.6549,54.6507 C91.6979,54.8817 91.7199,55.1377 91.7199,55.4187 C91.7199,55.6767 91.6979,55.9207 91.6499,56.1487 L91.6499,56.1487 Z M98.6439,53.7787 C98.5819,53.6027 98.4939,53.4487 98.3769,53.3177 C98.2609,53.1867 98.1209,53.0767 97.9569,52.9907 C97.7909,52.9067 97.6289,52.8467 97.4679,52.8157 C97.3079,52.7827 97.1719,52.7627 97.0559,52.7527 C96.9409,52.7427 96.8199,52.7387 96.6929,52.7387 L95.4269,52.7387 C95.3159,52.7387 95.2259,52.7717 95.1579,52.8367 C95.0909,52.9017 95.0579,52.9987 95.0579,53.1277 L95.0579,57.9597 C95.0579,57.9877 95.0659,58.0127 95.0819,58.0337 C95.0989,58.0557 95.1269,58.0737 95.1699,58.0887 C95.2109,58.1027 95.2669,58.1137 95.3379,58.1207 C95.4079,58.1297 95.4959,58.1337 95.6009,58.1337 C95.7089,58.1337 95.7989,58.1297 95.8669,58.1207 C95.9349,58.1137 95.9919,58.1027 96.0329,58.0887 C96.0739,58.0737 96.1029,58.0557 96.1209,58.0337 C96.1399,58.0127 96.1479,57.9877 96.1479,57.9597 L96.1479,56.2447 L96.5969,56.2447 C96.9509,56.2447 97.2589,56.2037 97.5209,56.1207 C97.7819,56.0377 98.0019,55.9167 98.1829,55.7587 C98.3639,55.5987 98.4999,55.4037 98.5929,55.1707 C98.6869,54.9387 98.7339,54.6707 98.7339,54.3687 C98.7339,54.1517 98.7029,53.9537 98.6439,53.7787 L98.6439,53.7787 Z M97.5349,54.8327 C97.4959,54.9497 97.4389,55.0517 97.3659,55.1357 C97.2909,55.2197 97.1929,55.2847 97.0759,55.3327 C96.9589,55.3797 96.8119,55.4037 96.6379,55.4037 L96.1479,55.4037 L96.1479,53.5807 L96.6139,53.5807 C96.7259,53.5807 96.8359,53.5887 96.9429,53.6047 C97.0499,53.6187 97.1519,53.6567 97.2479,53.7137 C97.3449,53.7727 97.4269,53.8627 97.4939,53.9837 C97.5599,54.1057 97.5929,54.2607 97.5929,54.4487 C97.5929,54.5867 97.5739,54.7157 97.5349,54.8327 L97.5349,54.8327 Z M107.1159,53.1747 C107.1159,53.1057 107.1049,53.0437 107.0879,52.9897 C107.0699,52.9357 107.0429,52.8897 107.0089,52.8527 C106.9739,52.8157 106.9309,52.7867 106.8769,52.7667 C106.8229,52.7487 106.7579,52.7387 106.6829,52.7387 L105.9489,52.7387 C105.8469,52.7387 105.7579,52.7487 105.6789,52.7697 C105.6009,52.7897 105.5349,52.8247 105.4779,52.8757 C105.4219,52.9247 105.3709,52.9907 105.3279,53.0707 C105.2849,53.1517 105.2459,53.2487 105.2089,53.3657 L104.0079,56.5577 L103.9899,56.5577 L102.8279,53.3577 C102.7949,53.2407 102.7559,53.1437 102.7109,53.0647 C102.6679,52.9857 102.6109,52.9227 102.5469,52.8737 C102.4779,52.8247 102.3999,52.7897 102.3079,52.7697 C102.2179,52.7487 102.1089,52.7387 101.9799,52.7387 L101.2669,52.7387 C101.1419,52.7387 101.0429,52.7767 100.9679,52.8507 C100.8939,52.9247 100.8569,53.0327 100.8569,53.1747 L100.8569,57.9597 C100.8569,57.9877 100.8639,58.0127 100.8789,58.0337 C100.8939,58.0557 100.9219,58.0737 100.9609,58.0887 C101.0019,58.1027 101.0559,58.1137 101.1209,58.1207 C101.1889,58.1297 101.2709,58.1337 101.3709,58.1337 C101.4739,58.1337 101.5559,58.1297 101.6209,58.1207 C101.6869,58.1137 101.7399,58.1027 101.7819,58.0887 C101.8239,58.0737 101.8509,58.0557 101.8669,58.0337 C101.8829,58.0127 101.8899,57.9877 101.8899,57.9597 L101.8899,53.5887 L101.8979,53.5887 L103.3999,57.9557 C103.4079,57.9867 103.4249,58.0127 103.4509,58.0337 C103.4739,58.0557 103.5089,58.0747 103.5519,58.0907 C103.5949,58.1057 103.6499,58.1167 103.7159,58.1237 C103.7829,58.1297 103.8639,58.1337 103.9569,58.1337 C104.0499,58.1337 104.1309,58.1317 104.1979,58.1277 C104.2629,58.1237 104.3179,58.1147 104.3609,58.1007 C104.4049,58.0867 104.4369,58.0687 104.4629,58.0457 C104.4889,58.0217 104.5059,57.9907 104.5169,57.9557 L106.0739,53.5887 L106.0819,53.5887 L106.0819,57.9597 C106.0819,57.9877 106.0899,58.0127 106.1069,58.0337 C106.1229,58.0557 106.1499,58.0737 106.1889,58.0887 C106.2279,58.1027 106.2819,58.1137 106.3469,58.1207 C106.4139,58.1297 106.4959,58.1337 106.5969,58.1337 C106.6989,58.1337 106.7829,58.1297 106.8489,58.1207 C106.9159,58.1137 106.9679,58.1027 107.0089,58.0887 C107.0499,58.0737 107.0759,58.0557 107.0929,58.0337 C107.1069,58.0127 107.1159,57.9877 107.1159,57.9597 L107.1159,53.1747 Z M112.7339,57.4807 C112.7259,57.4267 112.7159,57.3837 112.7029,57.3487 C112.6889,57.3167 112.6719,57.2917 112.6499,57.2777 C112.6309,57.2627 112.6069,57.2547 112.5819,57.2547 L110.6479,57.2547 L110.6479,55.7397 L112.2709,55.7397 C112.2969,55.7397 112.3179,55.7327 112.3399,55.7177 C112.3589,55.7037 112.3769,55.6827 112.3899,55.6507 C112.4049,55.6177 112.4159,55.5757 112.4219,55.5237 C112.4289,55.4717 112.4329,55.4047 112.4329,55.3237 C112.4329,55.2467 112.4289,55.1807 112.4219,55.1277 C112.4159,55.0737 112.4049,55.0307 112.3899,54.9987 C112.3769,54.9657 112.3589,54.9437 112.3399,54.9287 C112.3179,54.9117 112.2969,54.9057 112.2709,54.9057 L110.6479,54.9057 L110.6479,53.5927 L112.5659,53.5927 C112.5909,53.5927 112.6139,53.5867 112.6329,53.5707 C112.6499,53.5557 112.6679,53.5317 112.6809,53.4987 C112.6959,53.4657 112.7049,53.4207 112.7129,53.3667 C112.7199,53.3137 112.7219,53.2467 112.7219,53.1707 C112.7219,53.0867 112.7199,53.0187 112.7129,52.9657 C112.7049,52.9107 112.6959,52.8657 112.6809,52.8327 C112.6679,52.7977 112.6499,52.7737 112.6329,52.7587 C112.6139,52.7447 112.5909,52.7387 112.5659,52.7387 L109.8839,52.7387 C109.7929,52.7387 109.7159,52.7647 109.6549,52.8197 C109.5909,52.8737 109.5599,52.9617 109.5599,53.0827 L109.5599,57.7647 C109.5599,57.8857 109.5909,57.9737 109.6549,58.0287 C109.7159,58.0827 109.7929,58.1097 109.8839,58.1097 L112.5819,58.1097 C112.6069,58.1097 112.6309,58.1007 112.6499,58.0867 C112.6719,58.0717 112.6889,58.0477 112.7029,58.0127 C112.7159,57.9807 112.7259,57.9377 112.7339,57.8837 C112.7399,57.8287 112.7439,57.7627 112.7439,57.6807 C112.7439,57.6007 112.7399,57.5337 112.7339,57.4807 L112.7339,57.4807 Z M119.4099,52.9007 C119.4099,52.8737 119.4049,52.8487 119.3899,52.8247 C119.3749,52.8037 119.3509,52.7837 119.3159,52.7667 C119.2819,52.7507 119.2319,52.7397 119.1699,52.7327 C119.1049,52.7257 119.0269,52.7217 118.9329,52.7217 C118.8339,52.7217 118.7519,52.7257 118.6869,52.7327 C118.6249,52.7397 118.5729,52.7507 118.5349,52.7667 C118.4959,52.7837 118.4679,52.8037 118.4509,52.8247 C118.4349,52.8487 118.4269,52.8737 118.4269,52.9007 L118.4269,55.4187 C118.4269,55.6107 118.4289,55.8117 118.4329,56.0217 C118.4369,56.2327 118.4429,56.4347 118.4509,56.6277 L118.4479,56.6277 C118.3979,56.5167 118.3469,56.4067 118.2929,56.2957 C118.2399,56.1857 118.1869,56.0727 118.1329,55.9577 C118.0759,55.8427 118.0189,55.7277 117.9589,55.6127 C117.8999,55.4987 117.8399,55.3817 117.7799,55.2627 L116.7319,53.2997 C116.6809,53.1917 116.6309,53.1007 116.5799,53.0277 C116.5299,52.9527 116.4759,52.8967 116.4199,52.8557 C116.3639,52.8137 116.2989,52.7827 116.2259,52.7647 C116.1549,52.7467 116.0659,52.7387 115.9609,52.7387 L115.3749,52.7387 C115.2649,52.7387 115.1719,52.7717 115.0949,52.8367 C115.0189,52.9017 114.9819,52.9987 114.9819,53.1277 L114.9819,57.9557 C114.9819,57.9837 114.9889,58.0087 115.0019,58.0307 C115.0169,58.0517 115.0409,58.0717 115.0759,58.0867 C115.1139,58.1007 115.1619,58.1137 115.2259,58.1207 C115.2909,58.1297 115.3709,58.1337 115.4679,58.1337 C115.5659,58.1337 115.6479,58.1297 115.7109,58.1207 C115.7749,58.1137 115.8259,58.1007 115.8639,58.0867 C115.8999,58.0717 115.9269,58.0517 115.9429,58.0307 C115.9569,58.0087 115.9659,57.9837 115.9659,57.9557 L115.9659,55.1467 C115.9659,54.9357 115.9629,54.7317 115.9569,54.5327 C115.9509,54.3367 115.9429,54.1377 115.9309,53.9387 L115.9409,53.9387 C116.0039,54.1007 116.0759,54.2697 116.1569,54.4427 C116.2359,54.6157 116.3159,54.7767 116.3919,54.9267 L117.7299,57.4377 C117.7989,57.5747 117.8609,57.6887 117.9159,57.7757 C117.9719,57.8627 118.0299,57.9307 118.0899,57.9827 C118.1479,58.0337 118.2129,58.0697 118.2829,58.0887 C118.3529,58.1087 118.4369,58.1167 118.5349,58.1167 L118.9999,58.1167 C119.0519,58.1167 119.1029,58.1107 119.1549,58.0947 C119.2049,58.0787 119.2499,58.0557 119.2869,58.0227 C119.3239,57.9897 119.3549,57.9477 119.3769,57.8977 C119.3979,57.8467 119.4099,57.7917 119.4099,57.7277 L119.4099,52.9007 Z M125.4179,52.9757 C125.4119,52.9167 125.4019,52.8697 125.3879,52.8367 C125.3729,52.8017 125.3569,52.7767 125.3359,52.7607 C125.3139,52.7457 125.2909,52.7387 125.2669,52.7387 L121.4819,52.7387 C121.4549,52.7387 121.4309,52.7457 121.4119,52.7607 C121.3919,52.7767 121.3749,52.8017 121.3609,52.8367 C121.3469,52.8697 121.3379,52.9167 121.3299,52.9757 C121.3239,53.0327 121.3199,53.1047 121.3199,53.1877 C121.3199,53.2667 121.3239,53.3347 121.3299,53.3917 C121.3379,53.4487 121.3469,53.4937 121.3609,53.5297 C121.3749,53.5647 121.3919,53.5887 121.4119,53.6067 C121.4309,53.6217 121.4549,53.6317 121.4819,53.6317 L122.8259,53.6317 L122.8259,57.9597 C122.8259,57.9877 122.8359,58.0127 122.8529,58.0337 C122.8709,58.0557 122.9019,58.0737 122.9429,58.0887 C122.9839,58.1027 123.0409,58.1137 123.1109,58.1207 C123.1809,58.1297 123.2689,58.1337 123.3749,58.1337 C123.4799,58.1337 123.5679,58.1297 123.6379,58.1207 C123.7089,58.1137 123.7649,58.1027 123.8059,58.0887 C123.8469,58.0737 123.8769,58.0557 123.8959,58.0337 C123.9139,58.0127 123.9239,57.9877 123.9239,57.9597 L123.9239,53.6317 L125.2669,53.6317 C125.2909,53.6317 125.3139,53.6217 125.3359,53.6067 C125.3569,53.5887 125.3729,53.5647 125.3879,53.5297 C125.4019,53.4937 125.4119,53.4487 125.4179,53.3917 C125.4249,53.3347 125.4289,53.2667 125.4289,53.1877 C125.4289,53.1047 125.4249,53.0327 125.4179,52.9757 L125.4179,52.9757 Z M133.5389,52.9757 C133.5319,52.9167 133.5209,52.8697 133.5059,52.8367 C133.4899,52.8017 133.4719,52.7767 133.4529,52.7607 C133.4329,52.7457 133.4119,52.7387 133.3859,52.7387 L130.8589,52.7387 C130.7669,52.7387 130.6909,52.7647 130.6289,52.8197 C130.5659,52.8737 130.5349,52.9617 130.5349,53.0827 L130.5349,57.9507 C130.5349,57.9827 130.5449,58.0087 130.5619,58.0307 C130.5799,58.0517 130.6109,58.0717 130.6519,58.0867 C130.6929,58.1007 130.7499,58.1137 130.8199,58.1207 C130.8899,58.1297 130.9779,58.1337 131.0839,58.1337 C131.1909,58.1337 131.2799,58.1297 131.3489,58.1207 C131.4179,58.1137 131.4739,58.1007 131.5169,58.0867 C131.5599,58.0717 131.5899,58.0517 131.6069,58.0307 C131.6229,58.0087 131.6329,57.9827 131.6329,57.9507 L131.6329,55.9507 L133.2799,55.9507 C133.3039,55.9507 133.3259,55.9437 133.3449,55.9287 C133.3659,55.9127 133.3829,55.8877 133.3979,55.8507 C133.4119,55.8157 133.4239,55.7707 133.4309,55.7137 C133.4369,55.6587 133.4409,55.5907 133.4409,55.5067 C133.4409,55.4247 133.4369,55.3547 133.4309,55.2997 C133.4239,55.2437 133.4119,55.1987 133.3979,55.1667 C133.3829,55.1337 133.3659,55.1107 133.3449,55.0967 C133.3259,55.0827 133.3039,55.0747 133.2799,55.0747 L131.6329,55.0747 L131.6329,53.6317 L133.3859,53.6317 C133.4119,53.6317 133.4329,53.6217 133.4529,53.6067 C133.4719,53.5887 133.4899,53.5647 133.5059,53.5317 C133.5209,53.4987 133.5319,53.4527 133.5389,53.3967 C133.5449,53.3387 133.5489,53.2707 133.5489,53.1877 C133.5489,53.1047 133.5449,53.0327 133.5389,52.9757 L133.5389,52.9757 Z M140.0949,52.8877 C140.0949,52.8607 140.0859,52.8347 140.0699,52.8137 C140.0539,52.7917 140.0249,52.7737 139.9819,52.7587 C139.9409,52.7447 139.8859,52.7347 139.8179,52.7257 C139.7499,52.7177 139.6639,52.7137 139.5599,52.7137 C139.4549,52.7137 139.3669,52.7177 139.2949,52.7257 C139.2259,52.7347 139.1699,52.7447 139.1269,52.7587 C139.0859,52.7737 139.0579,52.7917 139.0409,52.8137 C139.0229,52.8347 139.0149,52.8607 139.0149,52.8877 L139.0149,56.1207 C139.0149,56.3097 138.9899,56.4777 138.9389,56.6257 C138.8879,56.7737 138.8139,56.8987 138.7199,56.9987 C138.6269,57.1007 138.5109,57.1767 138.3769,57.2297 C138.2399,57.2827 138.0879,57.3077 137.9159,57.3077 C137.7459,57.3077 137.5949,57.2827 137.4569,57.2317 C137.3199,57.1807 137.2029,57.1037 137.1049,57.0007 C137.0079,56.8987 136.9309,56.7697 136.8789,56.6137 C136.8259,56.4557 136.7999,56.2727 136.7999,56.0597 L136.7999,52.8877 C136.7999,52.8607 136.7909,52.8347 136.7729,52.8137 C136.7559,52.7917 136.7239,52.7737 136.6829,52.7587 C136.6419,52.7447 136.5859,52.7347 136.5169,52.7257 C136.4479,52.7177 136.3609,52.7137 136.2559,52.7137 C136.1479,52.7137 136.0599,52.7177 135.9899,52.7257 C135.9199,52.7347 135.8659,52.7447 135.8229,52.7587 C135.7799,52.7737 135.7499,52.7917 135.7319,52.8137 C135.7159,52.8347 135.7069,52.8607 135.7069,52.8877 L135.7069,56.1547 C135.7069,56.4967 135.7579,56.7977 135.8549,57.0537 C135.9529,57.3097 136.0949,57.5227 136.2819,57.6947 C136.4659,57.8657 136.6929,57.9927 136.9609,58.0777 C137.2299,58.1617 137.5329,58.2037 137.8709,58.2037 C138.2299,58.2037 138.5489,58.1577 138.8239,58.0637 C139.1009,57.9697 139.3339,57.8327 139.5209,57.6527 C139.7109,57.4737 139.8529,57.2527 139.9489,56.9917 C140.0469,56.7327 140.0949,56.4387 140.0949,56.1087 L140.0949,52.8877 Z M146.9649,52.9007 C146.9649,52.8737 146.9569,52.8487 146.9429,52.8247 C146.9289,52.8037 146.9069,52.7837 146.8709,52.7667 C146.8359,52.7507 146.7869,52.7397 146.7239,52.7327 C146.6599,52.7257 146.5819,52.7217 146.4889,52.7217 C146.3879,52.7217 146.3059,52.7257 146.2419,52.7327 C146.1789,52.7397 146.1269,52.7507 146.0899,52.7667 C146.0499,52.7837 146.0229,52.8037 146.0059,52.8247 C145.9899,52.8487 145.9799,52.8737 145.9799,52.9007 L145.9799,55.4187 C145.9799,55.6107 145.9819,55.8117 145.9889,56.0217 C145.9919,56.2327 145.9979,56.4347 146.0059,56.6277 L146.0019,56.6277 C145.9509,56.5167 145.8999,56.4067 145.8469,56.2957 C145.7949,56.1857 145.7419,56.0727 145.6869,55.9577 C145.6309,55.8427 145.5739,55.7277 145.5129,55.6127 C145.4549,55.4987 145.3939,55.3817 145.3339,55.2627 L144.2869,53.2997 C144.2339,53.1917 144.1829,53.1007 144.1339,53.0277 C144.0839,52.9527 144.0319,52.8967 143.9739,52.8557 C143.9179,52.8137 143.8529,52.7827 143.7819,52.7647 C143.7089,52.7467 143.6209,52.7387 143.5149,52.7387 L142.9309,52.7387 C142.8199,52.7387 142.7259,52.7717 142.6499,52.8367 C142.5739,52.9017 142.5349,52.9987 142.5349,53.1277 L142.5349,57.9557 C142.5349,57.9837 142.5429,58.0087 142.5559,58.0307 C142.5699,58.0517 142.5949,58.0717 142.6329,58.0867 C142.6679,58.1007 142.7179,58.1137 142.7819,58.1207 C142.8449,58.1297 142.9249,58.1337 143.0209,58.1337 C143.1209,58.1337 143.2029,58.1297 143.2669,58.1207 C143.3299,58.1137 143.3809,58.1007 143.4179,58.0867 C143.4549,58.0717 143.4819,58.0517 143.4959,58.0307 C143.5109,58.0087 143.5189,57.9837 143.5189,57.9557 L143.5189,55.1467 C143.5189,54.9357 143.5169,54.7317 143.5109,54.5327 C143.5059,54.3367 143.4979,54.1377 143.4859,53.9387 L143.4939,53.9387 C143.5579,54.1007 143.6309,54.2697 143.7109,54.4427 C143.7909,54.6157 143.8689,54.7767 143.9479,54.9267 L145.2829,57.4377 C145.3529,57.5747 145.4139,57.6887 145.4699,57.7757 C145.5249,57.8627 145.5839,57.9307 145.6419,57.9827 C145.7029,58.0337 145.7669,58.0697 145.8379,58.0887 C145.9079,58.1087 145.9919,58.1167 146.0899,58.1167 L146.5539,58.1167 C146.6069,58.1167 146.6579,58.1107 146.7089,58.0947 C146.7609,58.0787 146.8039,58.0557 146.8409,58.0227 C146.8809,57.9897 146.9099,57.9477 146.9309,57.8977 C146.9529,57.8467 146.9649,57.7917 146.9649,57.7277 L146.9649,52.9007 Z M153.6929,54.2197 C153.5739,53.8967 153.3999,53.6237 153.1739,53.4047 C152.9429,53.1847 152.6639,53.0187 152.3299,52.9067 C151.9959,52.7937 151.5909,52.7387 151.1109,52.7387 L149.7339,52.7387 C149.6419,52.7387 149.5659,52.7647 149.5039,52.8197 C149.4409,52.8737 149.4099,52.9617 149.4099,53.0827 L149.4099,57.7647 C149.4099,57.8857 149.4409,57.9737 149.5039,58.0287 C149.5659,58.0827 149.6419,58.1097 149.7339,58.1097 L151.0169,58.1097 C151.4919,58.1097 151.9019,58.0577 152.2459,57.9527 C152.5909,57.8507 152.8839,57.6877 153.1249,57.4657 C153.3659,57.2437 153.5499,56.9597 153.6789,56.6097 C153.8079,56.2587 153.8709,55.8367 153.8709,55.3447 C153.8709,54.9187 153.8119,54.5437 153.6929,54.2197 L153.6929,54.2197 Z M152.6399,56.1967 C152.5739,56.4287 152.4699,56.6217 152.3339,56.7797 C152.1979,56.9357 152.0249,57.0517 151.8229,57.1297 C151.6169,57.2077 151.3659,57.2457 151.0659,57.2457 L150.4979,57.2457 L150.4979,53.5927 L151.0499,53.5927 C151.3839,53.5927 151.6549,53.6377 151.8609,53.7287 C152.0659,53.8187 152.2359,53.9437 152.3669,54.1047 C152.4979,54.2647 152.5929,54.4537 152.6549,54.6727 C152.7129,54.8917 152.7419,55.1277 152.7419,55.3817 C152.7419,55.6927 152.7089,55.9637 152.6399,56.1967 L152.6399,56.1967 Z" id="Fill-59"></path>
            <path d="M62.7105,47.5595 C62.7025,47.5045 62.6925,47.4615 62.6795,47.4285 C62.6655,47.3955 62.6475,47.3715 62.6265,47.3565 C62.6065,47.3405 62.5835,47.3325 62.5605,47.3325 L60.6245,47.3325 L60.6245,45.8185 L62.2475,45.8185 C62.2725,45.8185 62.2945,45.8115 62.3155,45.7975 C62.3355,45.7835 62.3555,45.7605 62.3685,45.7295 C62.3805,45.6975 62.3925,45.6555 62.3995,45.6025 C62.4065,45.5495 62.4095,45.4835 62.4095,45.4035 C62.4095,45.3255 62.4065,45.2605 62.3995,45.2055 C62.3925,45.1525 62.3805,45.1095 62.3685,45.0775 C62.3555,45.0455 62.3355,45.0225 62.3155,45.0065 C62.2945,44.9915 62.2725,44.9845 62.2475,44.9845 L60.6245,44.9845 L60.6245,43.6725 L62.5425,43.6725 C62.5675,43.6725 62.5895,43.6645 62.6085,43.6495 C62.6285,43.6335 62.6445,43.6105 62.6575,43.5775 C62.6715,43.5435 62.6835,43.4995 62.6895,43.4465 C62.6975,43.3915 62.7005,43.3265 62.7005,43.2485 C62.7005,43.1655 62.6975,43.0965 62.6895,43.0435 C62.6835,42.9895 62.6715,42.9455 62.6575,42.9115 C62.6445,42.8755 62.6285,42.8525 62.6085,42.8385 C62.5895,42.8245 62.5675,42.8175 62.5425,42.8175 L59.8605,42.8175 C59.7695,42.8175 59.6925,42.8445 59.6305,42.8985 C59.5675,42.9525 59.5365,43.0395 59.5365,43.1625 L59.5365,47.8425 C59.5365,47.9655 59.5675,48.0535 59.6305,48.1075 C59.6925,48.1615 59.7695,48.1885 59.8605,48.1885 L62.5605,48.1885 C62.5835,48.1885 62.6065,48.1805 62.6265,48.1645 C62.6475,48.1505 62.6655,48.1255 62.6795,48.0925 C62.6925,48.0595 62.7025,48.0165 62.7105,47.9615 C62.7165,47.9085 62.7205,47.8405 62.7205,47.7605 C62.7205,47.6805 62.7165,47.6135 62.7105,47.5595 L62.7105,47.5595 Z M69.3415,42.9675 C69.3415,42.9385 69.3335,42.9135 69.3155,42.8915 C69.3005,42.8705 69.2715,42.8525 69.2305,42.8385 C69.1895,42.8245 69.1325,42.8135 69.0655,42.8055 C68.9975,42.7955 68.9115,42.7915 68.8065,42.7915 C68.7005,42.7915 68.6135,42.7955 68.5425,42.8055 C68.4725,42.8135 68.4155,42.8245 68.3745,42.8385 C68.3335,42.8525 68.3025,42.8705 68.2865,42.8915 C68.2715,42.9135 68.2635,42.9385 68.2635,42.9675 L68.2635,46.2005 C68.2635,46.3875 68.2355,46.5555 68.1855,46.7045 C68.1345,46.8525 68.0625,46.9775 67.9665,47.0785 C67.8725,47.1785 67.7575,47.2545 67.6225,47.3075 C67.4885,47.3605 67.3335,47.3875 67.1615,47.3875 C66.9935,47.3875 66.8395,47.3615 66.7025,47.3095 C66.5675,47.2585 66.4485,47.1825 66.3515,47.0805 C66.2515,46.9775 66.1775,46.8485 66.1245,46.6925 C66.0725,46.5355 66.0465,46.3505 66.0465,46.1375 L66.0465,42.9675 C66.0465,42.9385 66.0365,42.9135 66.0195,42.8915 C66.0015,42.8705 65.9725,42.8525 65.9295,42.8385 C65.8885,42.8245 65.8335,42.8135 65.7635,42.8055 C65.6955,42.7955 65.6065,42.7915 65.5015,42.7915 C65.3945,42.7915 65.3065,42.7955 65.2355,42.8055 C65.1675,42.8135 65.1105,42.8245 65.0675,42.8385 C65.0245,42.8525 64.9955,42.8705 64.9805,42.8915 C64.9625,42.9135 64.9545,42.9385 64.9545,42.9675 L64.9545,46.2335 C64.9545,46.5765 65.0035,46.8755 65.1015,47.1315 C65.2005,47.3875 65.3415,47.6005 65.5265,47.7735 C65.7125,47.9445 65.9395,48.0725 66.2085,48.1575 C66.4765,48.2415 66.7795,48.2835 67.1165,48.2835 C67.4765,48.2835 67.7945,48.2365 68.0725,48.1415 C68.3495,48.0475 68.5795,47.9115 68.7695,47.7315 C68.9565,47.5515 69.0995,47.3305 69.1975,47.0715 C69.2925,46.8115 69.3415,46.5165 69.3415,46.1865 L69.3415,42.9675 Z M75.7455,47.9325 C75.7315,47.8835 75.7045,47.8075 75.6635,47.7025 L75.2105,46.6435 C75.1575,46.5165 75.1055,46.4025 75.0485,46.3015 C74.9935,46.2005 74.9355,46.1115 74.8725,46.0325 C74.8105,45.9535 74.7435,45.8855 74.6735,45.8305 C74.6035,45.7755 74.5265,45.7275 74.4475,45.6885 C74.6135,45.6375 74.7615,45.5685 74.8925,45.4825 C75.0215,45.3955 75.1305,45.2955 75.2185,45.1785 C75.3085,45.0635 75.3745,44.9305 75.4195,44.7825 C75.4665,44.6335 75.4895,44.4695 75.4895,44.2905 C75.4895,44.0785 75.4565,43.8895 75.3945,43.7235 C75.3295,43.5595 75.2385,43.4165 75.1165,43.2975 C74.9975,43.1765 74.8515,43.0795 74.6775,43.0045 C74.5035,42.9285 74.3105,42.8775 74.0935,42.8465 C74.0195,42.8385 73.9375,42.8305 73.8455,42.8255 C73.7535,42.8205 73.6385,42.8175 73.4955,42.8175 L72.1065,42.8175 C72.0155,42.8175 71.9395,42.8445 71.8765,42.8985 C71.8145,42.9525 71.7825,43.0395 71.7825,43.1625 L71.7825,48.0385 C71.7825,48.0665 71.7905,48.0905 71.8085,48.1135 C71.8235,48.1355 71.8535,48.1535 71.8945,48.1665 C71.9375,48.1805 71.9915,48.1925 72.0625,48.2005 C72.1325,48.2095 72.2225,48.2135 72.3255,48.2135 C72.4355,48.2135 72.5235,48.2095 72.5915,48.2005 C72.6615,48.1925 72.7165,48.1805 72.7575,48.1665 C72.7985,48.1535 72.8295,48.1355 72.8475,48.1135 C72.8655,48.0905 72.8745,48.0665 72.8745,48.0385 L72.8745,45.9925 L73.2145,45.9925 C73.3295,45.9925 73.4335,46.0105 73.5215,46.0455 C73.6105,46.0815 73.6895,46.1355 73.7555,46.2055 C73.8235,46.2775 73.8845,46.3645 73.9405,46.4695 C73.9955,46.5755 74.0525,46.6955 74.1105,46.8305 L74.5915,48.0305 C74.6035,48.0635 74.6165,48.0925 74.6345,48.1155 C74.6495,48.1395 74.6795,48.1585 74.7185,48.1725 C74.7595,48.1885 74.8145,48.1995 74.8825,48.2045 C74.9525,48.2095 75.0445,48.2135 75.1615,48.2135 C75.2985,48.2135 75.4075,48.2095 75.4895,48.2045 C75.5695,48.1995 75.6305,48.1885 75.6715,48.1745 C75.7125,48.1625 75.7395,48.1435 75.7495,48.1225 C75.7615,48.1025 75.7675,48.0775 75.7675,48.0475 C75.7675,48.0185 75.7595,47.9815 75.7455,47.9325 L75.7455,47.9325 Z M74.3025,44.7175 C74.2635,44.8115 74.2045,44.8935 74.1265,44.9615 C74.0505,45.0295 73.9525,45.0805 73.8375,45.1195 C73.7225,45.1565 73.5855,45.1745 73.4315,45.1745 L72.8745,45.1745 L72.8745,43.6515 L73.3655,43.6515 C73.4885,43.6515 73.5855,43.6565 73.6565,43.6635 C73.7285,43.6725 73.7905,43.6825 73.8455,43.6975 C74.0295,43.7465 74.1595,43.8325 74.2395,43.9545 C74.3195,44.0765 74.3605,44.2255 74.3605,44.4035 C74.3605,44.5185 74.3395,44.6235 74.3025,44.7175 L74.3025,44.7175 Z M82.4315,44.2295 C82.3235,43.8895 82.1675,43.6065 81.9585,43.3815 C81.7495,43.1585 81.4895,42.9915 81.1775,42.8835 C80.8665,42.7765 80.5075,42.7215 80.1015,42.7215 C79.6735,42.7215 79.3005,42.7875 78.9785,42.9165 C78.6565,43.0475 78.3845,43.2345 78.1655,43.4775 C77.9485,43.7215 77.7825,44.0165 77.6735,44.3635 C77.5625,44.7095 77.5075,45.1005 77.5075,45.5365 C77.5075,46.0085 77.5585,46.4185 77.6615,46.7645 C77.7675,47.1105 77.9215,47.3955 78.1285,47.6195 C78.3375,47.8425 78.5975,48.0105 78.9075,48.1195 C79.2185,48.2295 79.5835,48.2835 80.0015,48.2835 C80.4235,48.2835 80.7965,48.2195 81.1185,48.0905 C81.4425,47.9615 81.7125,47.7755 81.9315,47.5305 C82.1495,47.2855 82.3145,46.9875 82.4255,46.6355 C82.5345,46.2845 82.5915,45.8855 82.5915,45.4405 C82.5915,44.9755 82.5365,44.5725 82.4315,44.2295 L82.4315,44.2295 Z M81.3765,46.2275 C81.3315,46.4555 81.2535,46.6555 81.1425,46.8265 C81.0325,46.9975 80.8865,47.1335 80.7065,47.2335 C80.5265,47.3325 80.3025,47.3835 80.0345,47.3835 C79.7675,47.3835 79.5425,47.3385 79.3665,47.2525 C79.1895,47.1645 79.0485,47.0385 78.9425,46.8715 C78.8375,46.7055 78.7635,46.5065 78.7185,46.2725 C78.6735,46.0385 78.6515,45.7755 78.6515,45.4825 C78.6515,45.2295 78.6755,44.9915 78.7225,44.7665 C78.7675,44.5395 78.8435,44.3425 78.9545,44.1745 C79.0655,44.0065 79.2105,43.8715 79.3925,43.7705 C79.5725,43.6685 79.7945,43.6185 80.0645,43.6185 C80.3295,43.6185 80.5505,43.6635 80.7285,43.7525 C80.9045,43.8425 81.0465,43.9695 81.1545,44.1355 C81.2595,44.2995 81.3355,44.4965 81.3785,44.7275 C81.4235,44.9595 81.4455,45.2155 81.4455,45.4975 C81.4455,45.7565 81.4215,45.9975 81.3765,46.2275 L81.3765,46.2275 Z M88.3685,43.8575 C88.3085,43.6805 88.2205,43.5285 88.1035,43.3955 C87.9885,43.2645 87.8475,43.1565 87.6835,43.0705 C87.5175,42.9855 87.3555,42.9265 87.1955,42.8935 C87.0345,42.8625 86.8965,42.8405 86.7815,42.8315 C86.6675,42.8225 86.5465,42.8175 86.4175,42.8175 L85.1515,42.8175 C85.0425,42.8175 84.9525,42.8505 84.8845,42.9145 C84.8175,42.9795 84.7825,43.0775 84.7825,43.2065 L84.7825,48.0385 C84.7825,48.0665 84.7905,48.0905 84.8085,48.1135 C84.8255,48.1355 84.8555,48.1535 84.8965,48.1665 C84.9375,48.1805 84.9935,48.1925 85.0645,48.2005 C85.1345,48.2095 85.2225,48.2135 85.3275,48.2135 C85.4355,48.2135 85.5235,48.2095 85.5915,48.2005 C85.6615,48.1925 85.7165,48.1805 85.7575,48.1665 C85.8005,48.1535 85.8295,48.1355 85.8495,48.1135 C85.8665,48.0905 85.8745,48.0665 85.8745,48.0385 L85.8745,46.3245 L86.3235,46.3245 C86.6775,46.3245 86.9855,46.2835 87.2455,46.2005 C87.5075,46.1175 87.7285,45.9965 87.9075,45.8365 C88.0875,45.6765 88.2265,45.4825 88.3195,45.2485 C88.4135,45.0165 88.4605,44.7495 88.4605,44.4485 C88.4605,44.2295 88.4315,44.0335 88.3685,43.8575 L88.3685,43.8575 Z M87.2615,44.9115 C87.2225,45.0295 87.1655,45.1295 87.0915,45.2135 C87.0175,45.2975 86.9195,45.3645 86.8025,45.4115 C86.6855,45.4575 86.5385,45.4825 86.3655,45.4825 L85.8745,45.4825 L85.8745,43.6605 L86.3395,43.6605 C86.4525,43.6605 86.5645,43.6665 86.6695,43.6825 C86.7765,43.6985 86.8785,43.7345 86.9745,43.7935 C87.0725,43.8505 87.1545,43.9415 87.2185,44.0615 C87.2865,44.1845 87.3195,44.3385 87.3195,44.5275 C87.3195,44.6655 87.3005,44.7935 87.2615,44.9115 L87.2615,44.9115 Z M93.7555,47.5595 C93.7475,47.5045 93.7385,47.4615 93.7245,47.4285 C93.7105,47.3955 93.6925,47.3715 93.6715,47.3565 C93.6515,47.3405 93.6285,47.3325 93.6035,47.3325 L91.6695,47.3325 L91.6695,45.8185 L93.2925,45.8185 C93.3175,45.8185 93.3395,45.8115 93.3605,45.7975 C93.3805,45.7835 93.3995,45.7605 93.4135,45.7295 C93.4255,45.6975 93.4375,45.6555 93.4455,45.6025 C93.4505,45.5495 93.4545,45.4835 93.4545,45.4035 C93.4545,45.3255 93.4505,45.2605 93.4455,45.2055 C93.4375,45.1525 93.4255,45.1095 93.4135,45.0775 C93.3995,45.0455 93.3805,45.0225 93.3605,45.0065 C93.3395,44.9915 93.3175,44.9845 93.2925,44.9845 L91.6695,44.9845 L91.6695,43.6725 L93.5875,43.6725 C93.6135,43.6725 93.6345,43.6645 93.6545,43.6495 C93.6735,43.6335 93.6895,43.6105 93.7025,43.5775 C93.7165,43.5435 93.7285,43.4995 93.7335,43.4465 C93.7415,43.3915 93.7455,43.3265 93.7455,43.2485 C93.7455,43.1655 93.7415,43.0965 93.7335,43.0435 C93.7285,42.9895 93.7165,42.9455 93.7025,42.9115 C93.6895,42.8755 93.6735,42.8525 93.6545,42.8385 C93.6345,42.8245 93.6135,42.8175 93.5875,42.8175 L90.9065,42.8175 C90.8145,42.8175 90.7385,42.8445 90.6755,42.8985 C90.6135,42.9525 90.5815,43.0395 90.5815,43.1625 L90.5815,47.8425 C90.5815,47.9655 90.6135,48.0535 90.6755,48.1075 C90.7385,48.1615 90.8145,48.1885 90.9065,48.1885 L93.6035,48.1885 C93.6285,48.1885 93.6515,48.1805 93.6715,48.1645 C93.6925,48.1505 93.7105,48.1255 93.7245,48.0925 C93.7385,48.0595 93.7475,48.0165 93.7555,47.9615 C93.7635,47.9085 93.7655,47.8405 93.7655,47.7605 C93.7655,47.6805 93.7635,47.6135 93.7555,47.5595 L93.7555,47.5595 Z M98.6405,43.0205 C98.6225,42.9675 98.6035,42.9265 98.5775,42.8955 C98.5565,42.8665 98.5175,42.8425 98.4625,42.8285 C98.4075,42.8115 98.3335,42.8035 98.2355,42.7995 C98.1405,42.7935 98.0095,42.7915 97.8475,42.7915 C97.7045,42.7915 97.5915,42.7935 97.5055,42.7995 C97.4195,42.8035 97.3535,42.8115 97.3045,42.8285 C97.2555,42.8425 97.2225,42.8655 97.1985,42.8935 C97.1755,42.9225 97.1575,42.9615 97.1405,43.0085 L95.4835,47.7735 C95.4505,47.8705 95.4315,47.9475 95.4215,48.0045 C95.4135,48.0635 95.4235,48.1085 95.4505,48.1395 C95.4805,48.1725 95.5295,48.1925 95.6015,48.2005 C95.6735,48.2095 95.7735,48.2135 95.8995,48.2135 C96.0195,48.2135 96.1155,48.2095 96.1895,48.2045 C96.2615,48.1995 96.3175,48.1885 96.3585,48.1725 C96.3985,48.1585 96.4275,48.1375 96.4455,48.1115 C96.4625,48.0845 96.4785,48.0515 96.4895,48.0125 L96.8295,46.9635 L98.8475,46.9635 L99.2065,48.0435 C99.2185,48.0795 99.2315,48.1085 99.2495,48.1295 C99.2655,48.1525 99.2945,48.1685 99.3355,48.1825 C99.3765,48.1945 99.4395,48.2025 99.5175,48.2055 C99.5955,48.2115 99.7045,48.2135 99.8475,48.2135 C99.9815,48.2135 100.0895,48.2095 100.1655,48.2025 C100.2435,48.1955 100.2965,48.1765 100.3275,48.1485 C100.3585,48.1195 100.3685,48.0765 100.3605,48.0185 C100.3535,47.9595 100.3315,47.8815 100.2985,47.7815 L98.6405,43.0205 Z M98.5935,46.1245 L97.0695,46.1245 L97.8295,43.8425 L97.8335,43.8425 L98.5935,46.1245 Z M106.7535,42.9795 C106.7535,42.9515 106.7475,42.9265 106.7335,42.9045 C106.7185,42.8815 106.6955,42.8635 106.6595,42.8465 C106.6265,42.8305 106.5755,42.8185 106.5135,42.8115 C106.4485,42.8035 106.3705,42.8015 106.2765,42.8015 C106.1775,42.8015 106.0955,42.8035 106.0315,42.8115 C105.9685,42.8185 105.9175,42.8305 105.8785,42.8465 C105.8395,42.8635 105.8125,42.8815 105.7945,42.9045 C105.7795,42.9265 105.7715,42.9515 105.7715,42.9795 L105.7715,45.4975 C105.7715,45.6885 105.7735,45.8895 105.7765,46.1005 C105.7815,46.3095 105.7865,46.5125 105.7945,46.7055 L105.7905,46.7055 C105.7415,46.5945 105.6905,46.4855 105.6385,46.3735 C105.5835,46.2625 105.5315,46.1515 105.4765,46.0365 C105.4195,45.9205 105.3635,45.8055 105.3025,45.6915 C105.2435,45.5775 105.1835,45.4595 105.1225,45.3405 L104.0775,43.3775 C104.0245,43.2705 103.9745,43.1785 103.9235,43.1065 C103.8725,43.0325 103.8195,42.9755 103.7635,42.9325 C103.7065,42.8915 103.6425,42.8625 103.5695,42.8445 C103.4975,42.8265 103.4095,42.8175 103.3065,42.8175 L102.7185,42.8175 C102.6085,42.8175 102.5155,42.8505 102.4395,42.9145 C102.3635,42.9795 102.3255,43.0775 102.3255,43.2065 L102.3255,48.0345 C102.3255,48.0615 102.3315,48.0865 102.3475,48.1095 C102.3605,48.1315 102.3845,48.1505 102.4215,48.1645 C102.4565,48.1805 102.5055,48.1925 102.5695,48.2005 C102.6345,48.2095 102.7145,48.2135 102.8125,48.2135 C102.9095,48.2135 102.9915,48.2095 103.0565,48.2005 C103.1185,48.1925 103.1695,48.1805 103.2065,48.1645 C103.2435,48.1505 103.2715,48.1315 103.2865,48.1095 C103.3005,48.0865 103.3105,48.0615 103.3105,48.0345 L103.3105,45.2235 C103.3105,45.0145 103.3065,44.8095 103.3005,44.6125 C103.2945,44.4135 103.2865,44.2155 103.2765,44.0165 L103.2845,44.0165 C103.3475,44.1805 103.4195,44.3485 103.4995,44.5205 C103.5795,44.6945 103.6595,44.8545 103.7355,45.0045 L105.0735,47.5145 C105.1425,47.6545 105.2045,47.7665 105.2595,47.8545 C105.3155,47.9415 105.3725,48.0105 105.4335,48.0615 C105.4915,48.1125 105.5565,48.1485 105.6265,48.1665 C105.6975,48.1865 105.7815,48.1965 105.8785,48.1965 L106.3435,48.1965 C106.3965,48.1965 106.4475,48.1885 106.4975,48.1725 C106.5485,48.1585 106.5935,48.1335 106.6305,48.1005 C106.6675,48.0675 106.6985,48.0265 106.7205,47.9755 C106.7415,47.9265 106.7535,47.8705 106.7535,47.8055 L106.7535,42.9795 Z M116.3585,47.9325 C116.3455,47.8835 116.3175,47.8075 116.2765,47.7025 L115.8235,46.6435 C115.7715,46.5165 115.7165,46.4025 115.6615,46.3015 C115.6065,46.2005 115.5485,46.1115 115.4855,46.0325 C115.4235,45.9535 115.3565,45.8855 115.2865,45.8305 C115.2165,45.7755 115.1405,45.7275 115.0605,45.6885 C115.2265,45.6375 115.3745,45.5685 115.5035,45.4825 C115.6345,45.3955 115.7435,45.2955 115.8315,45.1785 C115.9215,45.0635 115.9885,44.9305 116.0325,44.7825 C116.0795,44.6335 116.1035,44.4695 116.1035,44.2905 C116.1035,44.0785 116.0695,43.8895 116.0055,43.7235 C115.9425,43.5595 115.8515,43.4165 115.7305,43.2975 C115.6105,43.1765 115.4625,43.0795 115.2905,43.0045 C115.1185,42.9285 114.9235,42.8775 114.7065,42.8465 C114.6325,42.8385 114.5505,42.8305 114.4585,42.8255 C114.3665,42.8205 114.2515,42.8175 114.1105,42.8175 L112.7185,42.8175 C112.6285,42.8175 112.5505,42.8445 112.4895,42.8985 C112.4275,42.9525 112.3965,43.0395 112.3965,43.1625 L112.3965,48.0385 C112.3965,48.0665 112.4045,48.0905 112.4195,48.1135 C112.4375,48.1355 112.4665,48.1535 112.5075,48.1665 C112.5485,48.1805 112.6055,48.1925 112.6755,48.2005 C112.7455,48.2095 112.8335,48.2135 112.9395,48.2135 C113.0465,48.2135 113.1365,48.2095 113.2045,48.2005 C113.2745,48.1925 113.3295,48.1805 113.3705,48.1665 C113.4115,48.1535 113.4425,48.1355 113.4605,48.1135 C113.4785,48.0905 113.4885,48.0665 113.4885,48.0385 L113.4885,45.9925 L113.8275,45.9925 C113.9455,45.9925 114.0465,46.0105 114.1345,46.0455 C114.2245,46.0815 114.3005,46.1355 114.3685,46.2055 C114.4375,46.2775 114.4975,46.3645 114.5545,46.4695 C114.6085,46.5755 114.6655,46.6955 114.7245,46.8305 L115.2045,48.0305 C115.2165,48.0635 115.2305,48.0925 115.2475,48.1155 C115.2635,48.1395 115.2925,48.1585 115.3315,48.1725 C115.3725,48.1885 115.4275,48.1995 115.4955,48.2045 C115.5655,48.2095 115.6575,48.2135 115.7745,48.2135 C115.9115,48.2135 116.0235,48.2095 116.1035,48.2045 C116.1835,48.1995 116.2435,48.1885 116.2845,48.1745 C116.3255,48.1625 116.3535,48.1435 116.3635,48.1225 C116.3745,48.1025 116.3805,48.0775 116.3805,48.0475 C116.3805,48.0185 116.3725,47.9815 116.3585,47.9325 L116.3585,47.9325 Z M114.9155,44.7175 C114.8765,44.8115 114.8175,44.8935 114.7415,44.9615 C114.6635,45.0295 114.5655,45.0805 114.4505,45.1195 C114.3335,45.1565 114.1985,45.1745 114.0425,45.1745 L113.4885,45.1745 L113.4885,43.6515 L113.9785,43.6515 C114.1015,43.6515 114.1985,43.6565 114.2695,43.6635 C114.3395,43.6725 114.4045,43.6825 114.4585,43.6975 C114.6425,43.7465 114.7735,43.8325 114.8535,43.9545 C114.9335,44.0765 114.9745,44.2255 114.9745,44.4035 C114.9745,44.5185 114.9545,44.6235 114.9155,44.7175 L114.9155,44.7175 Z M121.6285,47.5595 C121.6225,47.5045 121.6135,47.4615 121.5995,47.4285 C121.5835,47.3955 121.5675,47.3715 121.5465,47.3565 C121.5245,47.3405 121.5015,47.3325 121.4785,47.3325 L119.5425,47.3325 L119.5425,45.8185 L121.1655,45.8185 C121.1905,45.8185 121.2145,45.8115 121.2355,45.7975 C121.2555,45.7835 121.2735,45.7605 121.2865,45.7295 C121.3005,45.6975 121.3125,45.6555 121.3175,45.6025 C121.3255,45.5495 121.3275,45.4835 121.3275,45.4035 C121.3275,45.3255 121.3255,45.2605 121.3175,45.2055 C121.3125,45.1525 121.3005,45.1095 121.2865,45.0775 C121.2735,45.0455 121.2555,45.0225 121.2355,45.0065 C121.2145,44.9915 121.1905,44.9845 121.1655,44.9845 L119.5425,44.9845 L119.5425,43.6725 L121.4605,43.6725 C121.4855,43.6725 121.5075,43.6645 121.5265,43.6495 C121.5465,43.6335 121.5645,43.6105 121.5775,43.5775 C121.5915,43.5435 121.6015,43.4995 121.6085,43.4465 C121.6155,43.3915 121.6185,43.3265 121.6185,43.2485 C121.6185,43.1655 121.6155,43.0965 121.6085,43.0435 C121.6015,42.9895 121.5915,42.9455 121.5775,42.9115 C121.5645,42.8755 121.5465,42.8525 121.5265,42.8385 C121.5075,42.8245 121.4855,42.8175 121.4605,42.8175 L118.7815,42.8175 C118.6895,42.8175 118.6135,42.8445 118.5485,42.8985 C118.4885,42.9525 118.4565,43.0395 118.4565,43.1625 L118.4565,47.8425 C118.4565,47.9655 118.4885,48.0535 118.5485,48.1075 C118.6135,48.1615 118.6895,48.1885 118.7815,48.1885 L121.4785,48.1885 C121.5015,48.1885 121.5245,48.1805 121.5465,48.1645 C121.5675,48.1505 121.5835,48.1255 121.5995,48.0925 C121.6135,48.0595 121.6225,48.0165 121.6285,47.9615 C121.6365,47.9085 121.6405,47.8405 121.6405,47.7605 C121.6405,47.6805 121.6365,47.6135 121.6285,47.5595 L121.6285,47.5595 Z M128.0365,43.3385 C128.0195,43.2665 127.9915,43.2135 127.9545,43.1745 C127.9175,43.1355 127.8535,43.0905 127.7575,43.0375 C127.6635,42.9855 127.5445,42.9345 127.4045,42.8895 C127.2595,42.8445 127.0935,42.8055 126.9045,42.7745 C126.7125,42.7425 126.4995,42.7255 126.2695,42.7255 C125.8435,42.7255 125.4605,42.7905 125.1165,42.9205 C124.7735,43.0515 124.4785,43.2385 124.2335,43.4835 C123.9915,43.7275 123.8025,44.0265 123.6695,44.3755 C123.5365,44.7255 123.4705,45.1215 123.4705,45.5615 C123.4705,45.9875 123.5325,46.3685 123.6575,46.7045 C123.7825,47.0395 123.9625,47.3255 124.1975,47.5595 C124.4335,47.7935 124.7185,47.9715 125.0585,48.0945 C125.3985,48.2175 125.7815,48.2795 126.2105,48.2795 C126.3565,48.2795 126.5015,48.2725 126.6485,48.2585 C126.7925,48.2445 126.9375,48.2235 127.0795,48.1965 C127.2225,48.1685 127.3585,48.1355 127.4915,48.0965 C127.6245,48.0575 127.7355,48.0205 127.8255,47.9845 C127.9155,47.9485 127.9765,47.8995 128.0055,47.8365 C128.0345,47.7755 128.0485,47.7025 128.0485,47.6195 L128.0485,45.4825 C128.0485,45.4265 128.0405,45.3775 128.0295,45.3345 C128.0155,45.2915 127.9935,45.2545 127.9665,45.2235 C127.9405,45.1945 127.9115,45.1705 127.8765,45.1565 C127.8415,45.1415 127.8025,45.1335 127.7575,45.1335 L125.9455,45.1335 C125.9195,45.1335 125.8985,45.1415 125.8785,45.1565 C125.8585,45.1705 125.8415,45.1955 125.8275,45.2255 C125.8145,45.2585 125.8045,45.3015 125.7965,45.3525 C125.7905,45.4065 125.7865,45.4715 125.7865,45.5475 C125.7865,45.6985 125.8005,45.8035 125.8275,45.8665 C125.8565,45.9285 125.8945,45.9595 125.9455,45.9595 L126.9605,45.9595 L126.9605,47.2045 C126.8585,47.2605 126.7475,47.3015 126.6285,47.3295 C126.5095,47.3565 126.3905,47.3705 126.2695,47.3705 C126.0195,47.3705 125.7905,47.3305 125.5855,47.2495 C125.3785,47.1705 125.2025,47.0515 125.0565,46.8935 C124.9095,46.7355 124.7945,46.5385 124.7145,46.3055 C124.6325,46.0725 124.5915,45.8015 124.5915,45.4945 C124.5915,45.2155 124.6305,44.9595 124.7105,44.7275 C124.7925,44.4965 124.9075,44.2995 125.0565,44.1355 C125.2045,43.9695 125.3845,43.8425 125.5955,43.7525 C125.8065,43.6635 126.0405,43.6185 126.3005,43.6185 C126.5445,43.6185 126.7575,43.6435 126.9425,43.6935 C127.1265,43.7435 127.2845,43.7975 127.4175,43.8545 C127.5505,43.9135 127.6575,43.9675 127.7385,44.0165 C127.8175,44.0665 127.8745,44.0905 127.9115,44.0905 C127.9375,44.0905 127.9585,44.0845 127.9765,44.0715 C127.9935,44.0575 128.0095,44.0335 128.0215,43.9975 C128.0345,43.9635 128.0425,43.9165 128.0505,43.8595 C128.0585,43.8015 128.0625,43.7325 128.0625,43.6515 C128.0625,43.5125 128.0525,43.4095 128.0365,43.3385 L128.0365,43.3385 Z M131.5405,42.9675 C131.5405,42.9385 131.5315,42.9135 131.5135,42.8915 C131.4955,42.8705 131.4645,42.8525 131.4235,42.8385 C131.3825,42.8245 131.3275,42.8135 131.2575,42.8055 C131.1895,42.7955 131.1015,42.7915 130.9915,42.7915 C130.8885,42.7915 130.7985,42.7955 130.7305,42.8055 C130.6615,42.8135 130.6055,42.8245 130.5625,42.8385 C130.5195,42.8525 130.4895,42.8705 130.4725,42.8915 C130.4525,42.9135 130.4455,42.9385 130.4455,42.9675 L130.4455,48.0385 C130.4455,48.0665 130.4525,48.0905 130.4725,48.1135 C130.4895,48.1355 130.5195,48.1535 130.5605,48.1665 C130.6035,48.1805 130.6575,48.1925 130.7285,48.2005 C130.7985,48.2095 130.8885,48.2135 130.9915,48.2135 C131.1015,48.2135 131.1895,48.2095 131.2575,48.2005 C131.3275,48.1925 131.3825,48.1805 131.4235,48.1665 C131.4645,48.1535 131.4955,48.1355 131.5135,48.1135 C131.5315,48.0905 131.5405,48.0665 131.5405,48.0385 L131.5405,42.9675 Z M138.6565,44.2295 C138.5505,43.8895 138.3925,43.6065 138.1835,43.3815 C137.9745,43.1585 137.7145,42.9915 137.4045,42.8835 C137.0915,42.7765 136.7335,42.7215 136.3255,42.7215 C135.8995,42.7215 135.5265,42.7875 135.2025,42.9165 C134.8805,43.0475 134.6105,43.2345 134.3925,43.4775 C134.1735,43.7215 134.0095,44.0165 133.8985,44.3635 C133.7865,44.7095 133.7315,45.1005 133.7315,45.5365 C133.7315,46.0085 133.7845,46.4185 133.8885,46.7645 C133.9915,47.1105 134.1485,47.3955 134.3555,47.6195 C134.5625,47.8425 134.8225,48.0105 135.1325,48.1195 C135.4455,48.2295 135.8085,48.2835 136.2265,48.2835 C136.6495,48.2835 137.0235,48.2195 137.3455,48.0905 C137.6675,47.9615 137.9395,47.7755 138.1565,47.5305 C138.3745,47.2855 138.5385,46.9875 138.6495,46.6355 C138.7615,46.2845 138.8155,45.8855 138.8155,45.4405 C138.8155,44.9755 138.7635,44.5725 138.6565,44.2295 L138.6565,44.2295 Z M137.6035,46.2275 C137.5565,46.4555 137.4785,46.6555 137.3685,46.8265 C137.2575,46.9975 137.1135,47.1335 136.9335,47.2335 C136.7515,47.3325 136.5295,47.3835 136.2595,47.3835 C135.9915,47.3835 135.7695,47.3385 135.5915,47.2525 C135.4135,47.1645 135.2735,47.0385 135.1675,46.8715 C135.0645,46.7055 134.9885,46.5065 134.9455,46.2725 C134.8995,46.0385 134.8765,45.7755 134.8765,45.4825 C134.8765,45.2295 134.8995,44.9915 134.9475,44.7665 C134.9915,44.5395 135.0695,44.3425 135.1815,44.1745 C135.2905,44.0065 135.4375,43.8715 135.6165,43.7705 C135.7965,43.6685 136.0215,43.6185 136.2885,43.6185 C136.5545,43.6185 136.7745,43.6635 136.9525,43.7525 C137.1305,43.8425 137.2715,43.9695 137.3785,44.1355 C137.4835,44.2995 137.5605,44.4965 137.6055,44.7275 C137.6485,44.9595 137.6715,45.2155 137.6715,45.4975 C137.6715,45.7565 137.6485,45.9975 137.6035,46.2275 L137.6035,46.2275 Z M145.4375,42.9795 C145.4375,42.9515 145.4315,42.9265 145.4155,42.9045 C145.4015,42.8815 145.3785,42.8635 145.3435,42.8465 C145.3105,42.8305 145.2595,42.8185 145.1975,42.8115 C145.1325,42.8035 145.0545,42.8015 144.9605,42.8015 C144.8605,42.8015 144.7795,42.8035 144.7145,42.8115 C144.6515,42.8185 144.6015,42.8305 144.5625,42.8465 C144.5235,42.8635 144.4955,42.8815 144.4785,42.9045 C144.4605,42.9265 144.4525,42.9515 144.4525,42.9795 L144.4525,45.4975 C144.4525,45.6885 144.4545,45.8895 144.4585,46.1005 C144.4645,46.3095 144.4705,46.5125 144.4785,46.7055 L144.4745,46.7055 C144.4235,46.5945 144.3725,46.4855 144.3195,46.3735 C144.2695,46.2625 144.2145,46.1515 144.1595,46.0365 C144.1035,45.9205 144.0465,45.8055 143.9855,45.6915 C143.9275,45.5775 143.8665,45.4595 143.8065,45.3405 L142.7595,43.3775 C142.7065,43.2705 142.6565,43.1785 142.6065,43.1065 C142.5565,43.0325 142.5035,42.9755 142.4475,42.9325 C142.3905,42.8915 142.3255,42.8625 142.2535,42.8445 C142.1815,42.8265 142.0935,42.8175 141.9885,42.8175 L141.4045,42.8175 C141.2925,42.8175 141.1985,42.8505 141.1225,42.9145 C141.0465,42.9795 141.0075,43.0775 141.0075,43.2065 L141.0075,48.0345 C141.0075,48.0615 141.0155,48.0865 141.0295,48.1095 C141.0425,48.1315 141.0675,48.1505 141.1055,48.1645 C141.1405,48.1805 141.1905,48.1925 141.2535,48.2005 C141.3175,48.2095 141.3985,48.2135 141.4935,48.2135 C141.5935,48.2135 141.6755,48.2095 141.7395,48.2005 C141.8025,48.1925 141.8535,48.1805 141.8905,48.1645 C141.9275,48.1505 141.9545,48.1315 141.9685,48.1095 C141.9835,48.0865 141.9915,48.0615 141.9915,48.0345 L141.9915,45.2235 C141.9915,45.0145 141.9895,44.8095 141.9835,44.6125 C141.9785,44.4135 141.9705,44.2155 141.9585,44.0165 L141.9665,44.0165 C142.0315,44.1805 142.1035,44.3485 142.1835,44.5205 C142.2635,44.6945 142.3415,44.8545 142.4195,45.0045 L143.7555,47.5145 C143.8255,47.6545 143.8885,47.7665 143.9425,47.8545 C143.9975,47.9415 144.0565,48.0105 144.1155,48.0615 C144.1735,48.1125 144.2395,48.1485 144.3105,48.1665 C144.3805,48.1865 144.4645,48.1965 144.5625,48.1965 L145.0265,48.1965 C145.0775,48.1965 145.1305,48.1885 145.1835,48.1725 C145.2335,48.1585 145.2765,48.1335 145.3145,48.1005 C145.3535,48.0675 145.3805,48.0265 145.4045,47.9755 C145.4255,47.9265 145.4375,47.8705 145.4375,47.8055 L145.4375,42.9795 Z M150.6205,43.0205 C150.6055,42.9675 150.5855,42.9265 150.5625,42.8955 C150.5385,42.8665 150.4995,42.8425 150.4455,42.8285 C150.3925,42.8115 150.3155,42.8035 150.2185,42.7995 C150.1225,42.7935 149.9915,42.7915 149.8295,42.7915 C149.6895,42.7915 149.5735,42.7935 149.4885,42.7995 C149.4045,42.8035 149.3355,42.8115 149.2865,42.8285 C149.2395,42.8425 149.2025,42.8655 149.1815,42.8935 C149.1595,42.9225 149.1405,42.9615 149.1225,43.0085 L147.4665,47.7735 C147.4355,47.8705 147.4135,47.9475 147.4065,48.0045 C147.3985,48.0635 147.4065,48.1085 147.4355,48.1395 C147.4625,48.1725 147.5115,48.1925 147.5835,48.2005 C147.6565,48.2095 147.7555,48.2135 147.8825,48.2135 C148.0015,48.2135 148.0975,48.2095 148.1715,48.2045 C148.2435,48.1995 148.3005,48.1885 148.3415,48.1725 C148.3805,48.1585 148.4095,48.1375 148.4275,48.1115 C148.4475,48.0845 148.4605,48.0515 148.4725,48.0125 L148.8125,46.9635 L150.8295,46.9635 L151.1905,48.0435 C151.2005,48.0795 151.2145,48.1085 151.2315,48.1295 C151.2475,48.1525 151.2765,48.1685 151.3195,48.1825 C151.3605,48.1945 151.4195,48.2025 151.4995,48.2055 C151.5775,48.2115 151.6895,48.2135 151.8295,48.2135 C151.9645,48.2135 152.0725,48.2095 152.1495,48.2025 C152.2265,48.1955 152.2815,48.1765 152.3125,48.1485 C152.3415,48.1195 152.3535,48.0765 152.3435,48.0185 C152.3355,47.9595 152.3155,47.8815 152.2825,47.7815 L150.6205,43.0205 Z M150.5755,46.1245 L149.0525,46.1245 L149.8125,43.8425 L149.8155,43.8425 L150.5755,46.1245 Z M157.2475,47.5225 C157.2415,47.4655 157.2315,47.4185 157.2165,47.3855 C157.2025,47.3505 157.1875,47.3255 157.1655,47.3095 C157.1465,47.2955 157.1205,47.2875 157.0935,47.2875 L155.4045,47.2875 L155.4045,42.9675 C155.4045,42.9385 155.3965,42.9135 155.3765,42.8915 C155.3585,42.8705 155.3295,42.8525 155.2865,42.8385 C155.2455,42.8245 155.1905,42.8135 155.1205,42.8055 C155.0525,42.7955 154.9645,42.7915 154.8565,42.7915 C154.7515,42.7915 154.6635,42.7955 154.5915,42.8055 C154.5235,42.8135 154.4665,42.8245 154.4235,42.8385 C154.3825,42.8525 154.3535,42.8705 154.3355,42.8915 C154.3175,42.9135 154.3085,42.9385 154.3085,42.9675 L154.3085,47.8425 C154.3085,47.9655 154.3395,48.0535 154.4015,48.1075 C154.4645,48.1615 154.5405,48.1885 154.6325,48.1885 L157.0935,48.1885 C157.1205,48.1885 157.1465,48.1785 157.1655,48.1635 C157.1875,48.1455 157.2025,48.1195 157.2165,48.0815 C157.2315,48.0455 157.2415,47.9975 157.2475,47.9415 C157.2555,47.8835 157.2595,47.8135 157.2595,47.7315 C157.2595,47.6485 157.2555,47.5785 157.2475,47.5225 L157.2475,47.5225 Z" id="Fill-60"></path>
            <path d="M63.9937,37.3798 C63.9837,37.3038 63.9707,37.2408 63.9507,37.1938 C63.9297,37.1488 63.9067,37.1128 63.8767,37.0928 C63.8477,37.0698 63.8137,37.0608 63.7817,37.0608 L61.0507,37.0608 L61.0507,34.9208 L63.3417,34.9208 C63.3767,34.9208 63.4077,34.9108 63.4367,34.8918 C63.4667,34.8718 63.4917,34.8408 63.5117,34.7958 C63.5317,34.7508 63.5447,34.6918 63.5547,34.6158 C63.5637,34.5418 63.5697,34.4478 63.5697,34.3348 C63.5697,34.2258 63.5637,34.1338 63.5547,34.0578 C63.5447,33.9818 63.5317,33.9208 63.5117,33.8758 C63.4917,33.8308 63.4667,33.7978 63.4367,33.7758 C63.4077,33.7548 63.3767,33.7428 63.3417,33.7428 L61.0507,33.7428 L61.0507,31.8918 L63.7577,31.8918 C63.7927,31.8918 63.8237,31.8818 63.8487,31.8588 C63.8787,31.8388 63.9017,31.8038 63.9217,31.7568 C63.9387,31.7098 63.9547,31.6498 63.9647,31.5718 C63.9737,31.4958 63.9777,31.4028 63.9777,31.2938 C63.9777,31.1768 63.9737,31.0808 63.9647,31.0048 C63.9547,30.9288 63.9387,30.8648 63.9217,30.8168 C63.9017,30.7688 63.8787,30.7338 63.8487,30.7138 C63.8237,30.6938 63.7927,30.6858 63.7577,30.6858 L59.9727,30.6858 C59.8437,30.6858 59.7337,30.7238 59.6457,30.7998 C59.5577,30.8758 59.5147,30.9988 59.5147,31.1708 L59.5147,37.7798 C59.5147,37.9518 59.5577,38.0758 59.6457,38.1518 C59.7337,38.2298 59.8437,38.2668 59.9727,38.2668 L63.7817,38.2668 C63.8137,38.2668 63.8477,38.2568 63.8767,38.2338 C63.9067,38.2138 63.9297,38.1788 63.9507,38.1318 C63.9707,38.0848 63.9837,38.0248 63.9937,37.9468 C64.0037,37.8708 64.0097,37.7768 64.0097,37.6628 C64.0097,37.5498 64.0037,37.4558 63.9937,37.3798 L63.9937,37.3798 Z M73.3547,30.8968 C73.3547,30.8578 73.3437,30.8208 73.3197,30.7898 C73.2967,30.7588 73.2557,30.7338 73.1977,30.7138 C73.1387,30.6938 73.0617,30.6788 72.9667,30.6668 C72.8707,30.6548 72.7477,30.6508 72.5987,30.6508 C72.4507,30.6508 72.3277,30.6548 72.2277,30.6668 C72.1287,30.6788 72.0487,30.6938 71.9897,30.7138 C71.9317,30.7338 71.8897,30.7588 71.8667,30.7898 C71.8437,30.8208 71.8317,30.8578 71.8317,30.8968 L71.8317,35.4598 C71.8317,35.7258 71.7967,35.9638 71.7237,36.1728 C71.6517,36.3818 71.5487,36.5578 71.4157,36.6988 C71.2827,36.8428 71.1207,36.9498 70.9297,37.0258 C70.7387,37.0988 70.5207,37.1358 70.2797,37.1358 C70.0407,37.1358 69.8257,37.1008 69.6327,37.0268 C69.4387,36.9558 69.2707,36.8468 69.1347,36.7018 C68.9957,36.5578 68.8887,36.3758 68.8137,36.1538 C68.7397,35.9348 68.7027,35.6728 68.7027,35.3718 L68.7027,30.8968 C68.7027,30.8578 68.6887,30.8208 68.6657,30.7898 C68.6397,30.7588 68.5977,30.7338 68.5387,30.7138 C68.4797,30.6938 68.4017,30.6788 68.3047,30.6668 C68.2067,30.6548 68.0837,30.6508 67.9347,30.6508 C67.7827,30.6508 67.6577,30.6548 67.5597,30.6668 C67.4627,30.6788 67.3847,30.6938 67.3237,30.7138 C67.2637,30.7338 67.2207,30.7588 67.1977,30.7898 C67.1737,30.8208 67.1617,30.8578 67.1617,30.8968 L67.1617,35.5068 C67.1617,35.9908 67.2297,36.4148 67.3707,36.7758 C67.5097,37.1378 67.7087,37.4398 67.9707,37.6808 C68.2317,37.9228 68.5527,38.1048 68.9317,38.2238 C69.3097,38.3428 69.7387,38.4008 70.2147,38.4008 C70.7227,38.4008 71.1717,38.3348 71.5617,38.2018 C71.9527,38.0688 72.2817,37.8758 72.5467,37.6218 C72.8117,37.3678 73.0137,37.0578 73.1497,36.6918 C73.2867,36.3228 73.3547,35.9068 73.3547,35.4418 L73.3547,30.8968 Z M82.3977,37.9058 C82.3787,37.8388 82.3397,37.7308 82.2817,37.5808 L81.6417,36.0868 C81.5677,35.9068 81.4917,35.7458 81.4137,35.6048 C81.3357,35.4618 81.2517,35.3348 81.1637,35.2238 C81.0757,35.1108 80.9837,35.0168 80.8827,34.9398 C80.7827,34.8608 80.6777,34.7938 80.5637,34.7388 C80.7987,34.6648 81.0077,34.5678 81.1907,34.4458 C81.3747,34.3248 81.5297,34.1828 81.6547,34.0198 C81.7797,33.8558 81.8727,33.6688 81.9367,33.4598 C82.0017,33.2508 82.0347,33.0198 82.0347,32.7648 C82.0347,32.4638 81.9897,32.1968 81.8997,31.9658 C81.8097,31.7338 81.6797,31.5308 81.5097,31.3608 C81.3397,31.1918 81.1327,31.0538 80.8887,30.9478 C80.6437,30.8428 80.3707,30.7698 80.0657,30.7258 C79.9607,30.7138 79.8437,30.7038 79.7147,30.6958 C79.5857,30.6898 79.4217,30.6858 79.2227,30.6858 L77.2597,30.6858 C77.1307,30.6858 77.0207,30.7238 76.9327,30.7998 C76.8457,30.8758 76.8027,30.9988 76.8027,31.1708 L76.8027,38.0558 C76.8027,38.0948 76.8137,38.1298 76.8377,38.1608 C76.8607,38.1928 76.9017,38.2178 76.9607,38.2368 C77.0187,38.2568 77.0977,38.2738 77.1987,38.2838 C77.2967,38.2958 77.4217,38.3018 77.5697,38.3018 C77.7227,38.3018 77.8477,38.2958 77.9457,38.2838 C78.0427,38.2738 78.1207,38.2568 78.1797,38.2368 C78.2387,38.2178 78.2797,38.1928 78.3047,38.1608 C78.3297,38.1298 78.3437,38.0948 78.3437,38.0558 L78.3437,35.1668 L78.8237,35.1668 C78.9887,35.1668 79.1327,35.1928 79.2577,35.2428 C79.3827,35.2938 79.4917,35.3688 79.5877,35.4698 C79.6827,35.5678 79.7707,35.6928 79.8487,35.8408 C79.9277,35.9888 80.0077,36.1588 80.0897,36.3508 L80.7687,38.0438 C80.7847,38.0908 80.8047,38.1318 80.8277,38.1648 C80.8507,38.1968 80.8897,38.2258 80.9487,38.2458 C81.0037,38.2688 81.0817,38.2818 81.1797,38.2898 C81.2767,38.2978 81.4077,38.3018 81.5727,38.3018 C81.7667,38.3018 81.9217,38.2978 82.0347,38.2898 C82.1477,38.2818 82.2337,38.2698 82.2927,38.2488 C82.3507,38.2308 82.3887,38.2058 82.4047,38.1768 C82.4197,38.1478 82.4277,38.1108 82.4277,38.0678 C82.4277,38.0278 82.4177,37.9758 82.3977,37.9058 L82.3977,37.9058 Z M80.3587,33.3678 C80.3047,33.5008 80.2227,33.6148 80.1137,33.7118 C80.0037,33.8078 79.8667,33.8818 79.7027,33.9348 C79.5387,33.9858 79.3477,34.0128 79.1287,34.0128 L78.3437,34.0128 L78.3437,31.8618 L79.0347,31.8618 C79.2107,31.8618 79.3477,31.8678 79.4487,31.8798 C79.5467,31.8918 79.6367,31.9068 79.7147,31.9268 C79.9727,31.9968 80.1577,32.1178 80.2707,32.2898 C80.3847,32.4618 80.4407,32.6728 80.4407,32.9228 C80.4407,33.0868 80.4137,33.2358 80.3587,33.3678 L80.3587,33.3678 Z M91.8357,32.6808 C91.6847,32.1968 91.4627,31.7978 91.1677,31.4828 C90.8727,31.1648 90.5057,30.9308 90.0657,30.7778 C89.6267,30.6258 89.1207,30.5498 88.5447,30.5498 C87.9457,30.5498 87.4157,30.6418 86.9607,30.8248 C86.5057,31.0088 86.1227,31.2738 85.8137,31.6158 C85.5057,31.9598 85.2727,32.3778 85.1187,32.8668 C84.9607,33.3588 84.8827,33.9088 84.8827,34.5238 C84.8827,35.1918 84.9567,35.7698 85.1027,36.2568 C85.2497,36.7448 85.4687,37.1488 85.7617,37.4638 C86.0547,37.7798 86.4217,38.0168 86.8607,38.1708 C87.3007,38.3238 87.8137,38.4008 88.4067,38.4008 C89.0017,38.4008 89.5297,38.3118 89.9837,38.1298 C90.4387,37.9468 90.8227,37.6848 91.1287,37.3388 C91.4367,36.9918 91.6697,36.5708 91.8277,36.0748 C91.9837,35.5788 92.0597,35.0168 92.0597,34.3878 C92.0597,33.7328 91.9857,33.1618 91.8357,32.6808 L91.8357,32.6808 Z M90.3477,35.4988 C90.2827,35.8198 90.1717,36.1038 90.0147,36.3448 C89.8607,36.5868 89.6567,36.7778 89.4017,36.9188 C89.1457,37.0608 88.8297,37.1298 88.4527,37.1298 C88.0737,37.1298 87.7577,37.0678 87.5077,36.9448 C87.2577,36.8218 87.0577,36.6448 86.9117,36.4088 C86.7617,36.1748 86.6577,35.8938 86.5937,35.5638 C86.5327,35.2338 86.4997,34.8608 86.4997,34.4458 C86.4997,34.0908 86.5327,33.7548 86.5977,33.4368 C86.6617,33.1168 86.7707,32.8388 86.9277,32.6008 C87.0837,32.3618 87.2887,32.1728 87.5427,32.0288 C87.7967,31.8878 88.1157,31.8168 88.4937,31.8168 C88.8687,31.8168 89.1797,31.8798 89.4297,32.0068 C89.6797,32.1338 89.8807,32.3138 90.0317,32.5458 C90.1817,32.7768 90.2887,33.0578 90.3487,33.3838 C90.4117,33.7098 90.4457,34.0708 90.4457,34.4698 C90.4457,34.8328 90.4117,35.1768 90.3477,35.4988 L90.3477,35.4988 Z M100.2187,32.1518 C100.1327,31.9038 100.0077,31.6888 99.8437,31.5028 C99.6797,31.3168 99.4797,31.1628 99.2497,31.0418 C99.0147,30.9208 98.7867,30.8388 98.5597,30.7938 C98.3337,30.7488 98.1387,30.7198 97.9757,30.7058 C97.8137,30.6918 97.6437,30.6858 97.4647,30.6858 L95.6777,30.6858 C95.5207,30.6858 95.3937,30.7318 95.2987,30.8218 C95.2047,30.9148 95.1567,31.0518 95.1567,31.2348 L95.1567,38.0558 C95.1567,38.0948 95.1677,38.1298 95.1907,38.1608 C95.2147,38.1928 95.2557,38.2178 95.3137,38.2368 C95.3727,38.2568 95.4527,38.2738 95.5507,38.2838 C95.6517,38.2958 95.7747,38.3018 95.9237,38.3018 C96.0757,38.3018 96.2007,38.2958 96.2987,38.2838 C96.3957,38.2738 96.4737,38.2568 96.5327,38.2368 C96.5917,38.2178 96.6327,38.1928 96.6597,38.1608 C96.6827,38.1298 96.6977,38.0948 96.6977,38.0558 L96.6977,35.6358 L97.3297,35.6358 C97.8297,35.6358 98.2637,35.5768 98.6327,35.4598 C99.0037,35.3428 99.3137,35.1728 99.5677,34.9468 C99.8227,34.7238 100.0147,34.4458 100.1477,34.1178 C100.2817,33.7898 100.3477,33.4128 100.3477,32.9868 C100.3477,32.6788 100.3047,32.4008 100.2187,32.1518 L100.2187,32.1518 Z M98.6547,33.6418 C98.5987,33.8078 98.5187,33.9488 98.4137,34.0678 C98.3077,34.1888 98.1717,34.2798 98.0057,34.3468 C97.8397,34.4128 97.6347,34.4458 97.3887,34.4458 L96.6977,34.4458 L96.6977,31.8738 L97.3527,31.8738 C97.5137,31.8738 97.6697,31.8858 97.8197,31.9058 C97.9687,31.9288 98.1137,31.9808 98.2497,32.0628 C98.3867,32.1448 98.5017,32.2718 98.5957,32.4428 C98.6887,32.6138 98.7357,32.8328 98.7357,33.0988 C98.7357,33.2938 98.7087,33.4758 98.6547,33.6418 L98.6547,33.6418 Z M107.8227,37.3798 C107.8117,37.3038 107.7987,37.2408 107.7797,37.1938 C107.7597,37.1488 107.7337,37.1128 107.7047,37.0928 C107.6757,37.0698 107.6417,37.0608 107.6087,37.0608 L104.8787,37.0608 L104.8787,34.9208 L107.1697,34.9208 C107.2047,34.9208 107.2357,34.9108 107.2647,34.8918 C107.2947,34.8718 107.3197,34.8408 107.3397,34.7958 C107.3587,34.7508 107.3727,34.6918 107.3827,34.6158 C107.3917,34.5418 107.3957,34.4478 107.3957,34.3348 C107.3957,34.2258 107.3917,34.1338 107.3827,34.0578 C107.3727,33.9818 107.3587,33.9208 107.3397,33.8758 C107.3197,33.8308 107.2947,33.7978 107.2647,33.7758 C107.2357,33.7548 107.2047,33.7428 107.1697,33.7428 L104.8787,33.7428 L104.8787,31.8918 L107.5857,31.8918 C107.6207,31.8918 107.6517,31.8818 107.6797,31.8588 C107.7067,31.8388 107.7277,31.8038 107.7497,31.7568 C107.7667,31.7098 107.7827,31.6498 107.7927,31.5718 C107.8027,31.4958 107.8067,31.4028 107.8067,31.2938 C107.8067,31.1768 107.8027,31.0808 107.7927,31.0048 C107.7827,30.9288 107.7667,30.8648 107.7497,30.8168 C107.7277,30.7688 107.7067,30.7338 107.6797,30.7138 C107.6517,30.6938 107.6207,30.6858 107.5857,30.6858 L103.8007,30.6858 C103.6717,30.6858 103.5617,30.7238 103.4737,30.7998 C103.3867,30.8758 103.3437,30.9988 103.3437,31.1708 L103.3437,37.7798 C103.3437,37.9518 103.3867,38.0758 103.4737,38.1518 C103.5617,38.2298 103.6717,38.2668 103.8007,38.2668 L107.6087,38.2668 C107.6417,38.2668 107.6757,38.2568 107.7047,38.2338 C107.7337,38.2138 107.7597,38.1788 107.7797,38.1318 C107.7987,38.0848 107.8117,38.0248 107.8227,37.9468 C107.8317,37.8708 107.8377,37.7768 107.8377,37.6628 C107.8377,37.5498 107.8317,37.4558 107.8227,37.3798 L107.8227,37.3798 Z M114.7167,30.9718 C114.6927,30.8988 114.6657,30.8388 114.6327,30.7958 C114.5987,30.7528 114.5447,30.7218 114.4687,30.6988 C114.3917,30.6788 114.2847,30.6648 114.1477,30.6578 C114.0117,30.6518 113.8277,30.6508 113.5977,30.6508 C113.3977,30.6508 113.2387,30.6518 113.1167,30.6578 C112.9957,30.6648 112.9017,30.6788 112.8337,30.6988 C112.7647,30.7218 112.7147,30.7528 112.6827,30.7938 C112.6517,30.8348 112.6247,30.8878 112.6007,30.9538 L110.2637,37.6808 C110.2167,37.8178 110.1867,37.9268 110.1757,38.0088 C110.1637,38.0908 110.1777,38.1538 110.2167,38.1988 C110.2557,38.2438 110.3257,38.2738 110.4277,38.2838 C110.5297,38.2958 110.6697,38.3018 110.8487,38.3018 C111.0167,38.3018 111.1547,38.2978 111.2577,38.2898 C111.3607,38.2818 111.4387,38.2688 111.4977,38.2458 C111.5547,38.2258 111.5957,38.1948 111.6207,38.1578 C111.6457,38.1208 111.6657,38.0748 111.6817,38.0218 L112.1617,36.5378 L115.0097,36.5378 L115.5187,38.0628 C115.5347,38.1118 115.5547,38.1528 115.5777,38.1858 C115.6007,38.2158 115.6417,38.2398 115.7007,38.2588 C115.7597,38.2758 115.8457,38.2868 115.9567,38.2938 C116.0677,38.2998 116.2227,38.3018 116.4217,38.3018 C116.6137,38.3018 116.7637,38.2978 116.8727,38.2868 C116.9817,38.2768 117.0577,38.2528 117.1007,38.2118 C117.1437,38.1708 117.1597,38.1088 117.1477,38.0258 C117.1367,37.9438 117.1067,37.8328 117.0597,37.6928 L114.7167,30.9718 Z M114.6517,35.3558 L112.5017,35.3558 L113.5737,32.1318 L113.5797,32.1318 L114.6517,35.3558 Z M126.1737,30.9128 C126.1737,30.8738 126.1637,30.8388 126.1437,30.8078 C126.1247,30.7768 126.0897,30.7488 126.0407,30.7258 C125.9917,30.7018 125.9237,30.6868 125.8337,30.6768 C125.7437,30.6668 125.6327,30.6608 125.4997,30.6608 C125.3587,30.6608 125.2437,30.6668 125.1547,30.6768 C125.0637,30.6868 124.9917,30.7018 124.9367,30.7258 C124.8827,30.7488 124.8437,30.7768 124.8197,30.8078 C124.7967,30.8388 124.7847,30.8738 124.7847,30.9128 L124.7847,34.4698 C124.7847,34.7388 124.7867,35.0238 124.7927,35.3188 C124.7987,35.6158 124.8077,35.9018 124.8197,36.1748 L124.8137,36.1748 C124.7437,36.0198 124.6717,35.8618 124.5977,35.7058 C124.5227,35.5498 124.4477,35.3918 124.3687,35.2298 C124.2907,35.0668 124.2087,34.9038 124.1247,34.7418 C124.0407,34.5808 123.9567,34.4148 123.8707,34.2468 L122.3937,31.4758 C122.3197,31.3228 122.2477,31.1948 122.1777,31.0928 C122.1067,30.9878 122.0317,30.9068 121.9507,30.8488 C121.8707,30.7898 121.7817,30.7488 121.6797,30.7238 C121.5777,30.6968 121.4527,30.6858 121.3047,30.6858 L120.4777,30.6858 C120.3227,30.6858 120.1887,30.7318 120.0817,30.8218 C119.9737,30.9148 119.9217,31.0518 119.9217,31.2348 L119.9217,38.0498 C119.9217,38.0888 119.9317,38.1238 119.9507,38.1548 C119.9707,38.1878 120.0057,38.2138 120.0567,38.2338 C120.1067,38.2568 120.1777,38.2738 120.2667,38.2838 C120.3567,38.2958 120.4707,38.3018 120.6067,38.3018 C120.7477,38.3018 120.8637,38.2958 120.9527,38.2838 C121.0427,38.2738 121.1157,38.2568 121.1657,38.2338 C121.2187,38.2138 121.2557,38.1878 121.2797,38.1548 C121.2987,38.1238 121.3097,38.0888 121.3097,38.0498 L121.3097,34.0828 C121.3097,33.7858 121.3067,33.4988 121.2987,33.2198 C121.2907,32.9408 121.2797,32.6588 121.2637,32.3778 L121.2747,32.3778 C121.3657,32.6088 121.4667,32.8468 121.5797,33.0908 C121.6927,33.3348 121.8047,33.5628 121.9137,33.7738 L123.8007,37.3168 C123.8977,37.5128 123.9857,37.6728 124.0637,37.7958 C124.1417,37.9188 124.2227,38.0168 124.3067,38.0888 C124.3897,38.1598 124.4837,38.2098 124.5817,38.2368 C124.6817,38.2648 124.8007,38.2778 124.9367,38.2778 L125.5937,38.2778 C125.6677,38.2778 125.7397,38.2688 125.8117,38.2458 C125.8847,38.2258 125.9487,38.1918 125.9997,38.1448 C126.0527,38.0968 126.0957,38.0378 126.1267,37.9678 C126.1577,37.8988 126.1737,37.8178 126.1737,37.7288 L126.1737,30.9128 Z M140.3257,30.8968 C140.3257,30.8578 140.3137,30.8208 140.2907,30.7898 C140.2667,30.7588 140.2257,30.7338 140.1677,30.7138 C140.1087,30.6938 140.0327,30.6788 139.9347,30.6668 C139.8397,30.6548 139.7187,30.6508 139.5697,30.6508 C139.4217,30.6508 139.2987,30.6548 139.1987,30.6668 C139.0977,30.6788 139.0187,30.6938 138.9607,30.7138 C138.9017,30.7338 138.8607,30.7588 138.8377,30.7898 C138.8137,30.8208 138.8027,30.8578 138.8027,30.8968 L138.8027,35.4598 C138.8027,35.7258 138.7647,35.9638 138.6957,36.1728 C138.6227,36.3818 138.5187,36.5578 138.3867,36.6988 C138.2537,36.8428 138.0917,36.9498 137.8997,37.0258 C137.7087,37.0988 137.4917,37.1358 137.2497,37.1358 C137.0117,37.1358 136.7967,37.1008 136.6007,37.0268 C136.4097,36.9558 136.2437,36.8468 136.1027,36.7018 C135.9647,36.5578 135.8587,36.3758 135.7847,36.1538 C135.7107,35.9348 135.6737,35.6728 135.6737,35.3718 L135.6737,30.8968 C135.6737,30.8578 135.6617,30.8208 135.6347,30.7898 C135.6107,30.7588 135.5677,30.7338 135.5097,30.7138 C135.4507,30.6938 135.3727,30.6788 135.2747,30.6668 C135.1777,30.6548 135.0547,30.6508 134.9067,30.6508 C134.7537,30.6508 134.6287,30.6548 134.5317,30.6668 C134.4327,30.6788 134.3527,30.6938 134.2947,30.7138 C134.2317,30.7338 134.1907,30.7588 134.1677,30.7898 C134.1437,30.8208 134.1327,30.8578 134.1327,30.8968 L134.1327,35.5068 C134.1327,35.9908 134.2027,36.4148 134.3397,36.7758 C134.4777,37.1378 134.6797,37.4398 134.9407,37.6808 C135.2027,37.9228 135.5227,38.1048 135.9017,38.2238 C136.2817,38.3428 136.7087,38.4008 137.1847,38.4008 C137.6927,38.4008 138.1417,38.3348 138.5327,38.2018 C138.9237,38.0688 139.2517,37.8758 139.5167,37.6218 C139.7827,37.3678 139.9837,37.0578 140.1207,36.6918 C140.2577,36.3228 140.3257,35.9068 140.3257,35.4418 L140.3257,30.8968 Z M150.0227,30.9128 C150.0227,30.8738 150.0137,30.8388 149.9957,30.8078 C149.9737,30.7768 149.9407,30.7488 149.8917,30.7258 C149.8437,30.7018 149.7727,30.6868 149.6827,30.6768 C149.5957,30.6668 149.4817,30.6608 149.3487,30.6608 C149.2107,30.6608 149.0957,30.6668 149.0057,30.6768 C148.9157,30.6868 148.8437,30.7018 148.7887,30.7258 C148.7317,30.7488 148.6957,30.7768 148.6717,30.8078 C148.6457,30.8388 148.6367,30.8738 148.6367,30.9128 L148.6367,34.4698 C148.6367,34.7388 148.6387,35.0238 148.6437,35.3188 C148.6497,35.6158 148.6597,35.9018 148.6717,36.1748 L148.6657,36.1748 C148.5957,36.0198 148.5207,35.8618 148.4487,35.7058 C148.3747,35.5498 148.2987,35.3918 148.2207,35.2298 C148.1397,35.0668 148.0597,34.9038 147.9757,34.7418 C147.8917,34.5808 147.8067,34.4148 147.7227,34.2468 L146.2457,31.4758 C146.1717,31.3228 146.0977,31.1948 146.0297,31.0928 C145.9587,30.9878 145.8827,30.9068 145.8027,30.8488 C145.7227,30.7898 145.6327,30.7488 145.5317,30.7238 C145.4297,30.6968 145.3047,30.6858 145.1567,30.6858 L144.3297,30.6858 C144.1737,30.6858 144.0407,30.7318 143.9327,30.8218 C143.8257,30.9148 143.7707,31.0518 143.7707,31.2348 L143.7707,38.0498 C143.7707,38.0888 143.7827,38.1238 143.8027,38.1548 C143.8227,38.1878 143.8547,38.2138 143.9077,38.2338 C143.9587,38.2568 144.0297,38.2738 144.1187,38.2838 C144.2087,38.2958 144.3227,38.3018 144.4587,38.3018 C144.5977,38.3018 144.7147,38.2958 144.8047,38.2838 C144.8917,38.2738 144.9647,38.2568 145.0167,38.2338 C145.0697,38.2138 145.1067,38.1878 145.1287,38.1548 C145.1497,38.1238 145.1617,38.0888 145.1617,38.0498 L145.1617,34.0828 C145.1617,33.7858 145.1577,33.4988 145.1477,33.2198 C145.1397,32.9408 145.1307,32.6588 145.1157,32.3778 L145.1267,32.3778 C145.2167,32.6088 145.3177,32.8468 145.4317,33.0908 C145.5447,33.3348 145.6567,33.5628 145.7647,33.7738 L147.6517,37.3168 C147.7497,37.5128 147.8377,37.6728 147.9157,37.7958 C147.9937,37.9188 148.0737,38.0168 148.1577,38.0888 C148.2417,38.1598 148.3337,38.2098 148.4327,38.2368 C148.5327,38.2648 148.6517,38.2778 148.7887,38.2778 L149.4457,38.2778 C149.5167,38.2778 149.5917,38.2688 149.6637,38.2458 C149.7357,38.2258 149.7987,38.1918 149.8507,38.1448 C149.9047,38.0968 149.9477,38.0378 149.9757,37.9678 C150.0097,37.8988 150.0227,37.8178 150.0227,37.7288 L150.0227,30.9128 Z M155.0227,30.8968 C155.0227,30.8578 155.0117,30.8208 154.9857,30.7898 C154.9607,30.7588 154.9177,30.7338 154.8587,30.7138 C154.8007,30.6938 154.7227,30.6788 154.6247,30.6668 C154.5267,30.6548 154.4017,30.6508 154.2497,30.6508 C154.1007,30.6508 153.9777,30.6548 153.8807,30.6668 C153.7827,30.6788 153.7047,30.6938 153.6437,30.7138 C153.5837,30.7338 153.5407,30.7588 153.5147,30.7898 C153.4897,30.8208 153.4757,30.8578 153.4757,30.8968 L153.4757,38.0558 C153.4757,38.0948 153.4897,38.1298 153.5147,38.1608 C153.5407,38.1928 153.5817,38.2178 153.6397,38.2368 C153.6987,38.2568 153.7797,38.2738 153.8787,38.2838 C153.9777,38.2958 154.1007,38.3018 154.2497,38.3018 C154.4017,38.3018 154.5267,38.2958 154.6247,38.2838 C154.7227,38.2738 154.8007,38.2568 154.8587,38.2368 C154.9177,38.2178 154.9607,38.1928 154.9857,38.1608 C155.0117,38.1298 155.0227,38.0948 155.0227,38.0558 L155.0227,30.8968 Z M165.0727,32.6808 C164.9197,32.1968 164.6977,31.7978 164.4047,31.4828 C164.1067,31.1648 163.7397,30.9308 163.3007,30.7778 C162.8637,30.6258 162.3547,30.5498 161.7817,30.5498 C161.1797,30.5498 160.6517,30.6418 160.1977,30.8248 C159.7397,31.0088 159.3587,31.2738 159.0507,31.6158 C158.7417,31.9598 158.5097,32.3778 158.3527,32.8668 C158.1977,33.3588 158.1187,33.9088 158.1187,34.5238 C158.1187,35.1918 158.1927,35.7698 158.3377,36.2568 C158.4857,36.7448 158.7047,37.1488 158.9977,37.4638 C159.2907,37.7798 159.6567,38.0168 160.0957,38.1708 C160.5347,38.3238 161.0507,38.4008 161.6397,38.4008 C162.2387,38.4008 162.7637,38.3118 163.2187,38.1298 C163.6737,37.9468 164.0567,37.6848 164.3657,37.3388 C164.6737,36.9918 164.9067,36.5708 165.0617,36.0748 C165.2187,35.5788 165.2967,35.0168 165.2967,34.3878 C165.2967,33.7328 165.2207,33.1618 165.0727,32.6808 L165.0727,32.6808 Z M163.5817,35.4988 C163.5167,35.8198 163.4077,36.1038 163.2517,36.3448 C163.0957,36.5868 162.8897,36.7778 162.6367,36.9188 C162.3827,37.0608 162.0657,37.1298 161.6867,37.1298 C161.3077,37.1298 160.9937,37.0678 160.7437,36.9448 C160.4937,36.8218 160.2947,36.6448 160.1457,36.4088 C159.9977,36.1748 159.8917,35.8938 159.8297,35.5638 C159.7667,35.2338 159.7357,34.8608 159.7357,34.4458 C159.7357,34.0908 159.7667,33.7548 159.8317,33.4368 C159.8957,33.1168 160.0077,32.8388 160.1637,32.6008 C160.3197,32.3618 160.5247,32.1728 160.7797,32.0288 C161.0327,31.8878 161.3487,31.8168 161.7277,31.8168 C162.1027,31.8168 162.4157,31.8798 162.6657,32.0068 C162.9157,32.1338 163.1157,32.3138 163.2647,32.5458 C163.4157,32.7768 163.5227,33.0578 163.5857,33.3838 C163.6477,33.7098 163.6797,34.0708 163.6797,34.4698 C163.6797,34.8328 163.6457,35.1768 163.5817,35.4988 L163.5817,35.4988 Z M174.6417,30.9128 C174.6417,30.8738 174.6327,30.8388 174.6157,30.8078 C174.5937,30.7768 174.5597,30.7488 174.5117,30.7258 C174.4627,30.7018 174.3917,30.6868 174.3027,30.6768 C174.2127,30.6668 174.1007,30.6608 173.9687,30.6608 C173.8297,30.6608 173.7127,30.6668 173.6227,30.6768 C173.5347,30.6868 173.4607,30.7018 173.4077,30.7258 C173.3507,30.7488 173.3117,30.7768 173.2907,30.8078 C173.2647,30.8388 173.2537,30.8738 173.2537,30.9128 L173.2537,34.4698 C173.2537,34.7388 173.2577,35.0238 173.2637,35.3188 C173.2687,35.6158 173.2797,35.9018 173.2907,36.1748 L173.2847,36.1748 C173.2127,36.0198 173.1397,35.8618 173.0677,35.7058 C172.9937,35.5498 172.9157,35.3918 172.8377,35.2298 C172.7597,35.0668 172.6797,34.9038 172.5957,34.7418 C172.5117,34.5808 172.4257,34.4148 172.3397,34.2468 L170.8657,31.4758 C170.7887,31.3228 170.7167,31.1948 170.6457,31.0928 C170.5777,30.9878 170.5017,30.9068 170.4217,30.8488 C170.3417,30.7898 170.2497,30.7488 170.1477,30.7238 C170.0467,30.6968 169.9217,30.6858 169.7727,30.6858 L168.9487,30.6858 C168.7907,30.6858 168.6597,30.7318 168.5527,30.8218 C168.4457,30.9148 168.3897,31.0518 168.3897,31.2348 L168.3897,38.0498 C168.3897,38.0888 168.4017,38.1238 168.4197,38.1548 C168.4387,38.1878 168.4737,38.2138 168.5267,38.2338 C168.5777,38.2568 168.6457,38.2738 168.7387,38.2838 C168.8277,38.2958 168.9387,38.3018 169.0777,38.3018 C169.2167,38.3018 169.3317,38.2958 169.4217,38.2838 C169.5117,38.2738 169.5837,38.2568 169.6367,38.2338 C169.6887,38.2138 169.7257,38.1878 169.7477,38.1548 C169.7687,38.1238 169.7817,38.0888 169.7817,38.0498 L169.7817,34.0828 C169.7817,33.7858 169.7767,33.4988 169.7667,33.2198 C169.7597,32.9408 169.7477,32.6588 169.7317,32.3778 L169.7457,32.3778 C169.8337,32.6088 169.9347,32.8468 170.0487,33.0908 C170.1637,33.3348 170.2727,33.5628 170.3827,33.7738 L172.2687,37.3168 C172.3687,37.5128 172.4547,37.6728 172.5347,37.7958 C172.6137,37.9188 172.6927,38.0168 172.7767,38.0888 C172.8607,38.1598 172.9527,38.2098 173.0527,38.2368 C173.1517,38.2648 173.2687,38.2778 173.4077,38.2778 L174.0617,38.2778 C174.1367,38.2778 174.2107,38.2688 174.2827,38.2458 C174.3547,38.2258 174.4177,38.1918 174.4707,38.1448 C174.5227,38.0968 174.5637,38.0378 174.5957,37.9678 C174.6267,37.8988 174.6417,37.8178 174.6417,37.7288 L174.6417,30.9128 Z" id="Fill-61"></path>
        </g>
    </g>
</svg>